<svg width="71" height="48" viewBox="0 0 71 48" fill="none" xmlns="http://www.w3.org/2000/svg">
<path fill-rule="evenodd" clip-rule="evenodd" d="M58.7928 36.037L70.7399 24.0537L49.4997 2.74917C46.5813 -0.178108 41.798 -0.178108 38.8796 2.74917L28.2595 13.4014L35.1235 20.2863C37.1867 22.3557 40.568 24.0537 42.6312 24.0537H38.6503C36.5871 24.0537 33.2058 22.3601 31.1426 20.2863L22.9472 12.0705C20.0288 9.14318 15.2455 9.14318 12.3271 12.0705L0.380005 24.0537L21.6202 45.3583C24.5387 48.2855 29.3219 48.2855 32.2404 45.3583L49.7245 27.8211C51.7877 25.7517 55.169 24.0537 57.2322 24.0537H61.2131C59.1499 24.0537 55.7686 25.7473 53.7054 27.8211L46.8414 34.706L48.1683 36.037C51.0912 38.9642 55.87 38.9642 58.7928 36.037Z" fill="#8EA6D6"/>
</svg>
