<svg width="130" height="195" viewBox="0 0 130 195" fill="none" xmlns="http://www.w3.org/2000/svg">
<path d="M119.161 184.972L115.775 194.802H116.77L117.78 191.873H121.633L122.648 194.802H124.11L120.821 184.972H119.161ZM119.744 186.013L121.379 191.126H118.029L119.744 186.013ZM108.836 184.972H107.435V194.802H108.836V184.972ZM100.095 185.658C100.095 185.658 98.7143 184.774 97.0747 184.774C94.3489 184.774 92.6332 186.821 92.6332 189.963C92.6332 193.05 94.2474 195 97.0747 195C99.5874 195 100.577 193.228 100.577 193.228L100.049 192.639C100.049 192.639 99.1153 194.076 97.3032 194.076C95.354 194.076 94.1509 192.761 94.1509 189.928C94.1509 187.095 95.2829 185.678 97.2067 185.678C98.5316 185.678 99.9123 186.485 99.9123 186.485L100.095 185.658ZM81.7907 184.972L78.405 194.802H79.3999L80.41 191.873H84.2627L85.2729 194.802H86.7348L83.4455 184.972H81.7907ZM82.3744 186.013L84.0089 191.126H80.6587L82.3744 186.013ZM72.1309 185.658C72.1309 185.658 70.7502 184.774 69.1107 184.774C66.3848 184.774 64.6691 186.821 64.6691 189.963C64.6691 193.05 66.2833 195 69.1107 195C71.6233 195 72.6132 193.228 72.6132 193.228L72.0853 192.639C72.0853 192.639 71.1513 194.076 69.3391 194.076C67.3899 194.076 66.1869 192.761 66.1869 189.928C66.1869 187.095 67.3137 185.678 69.2427 185.678C70.5675 185.678 71.9482 186.485 71.9482 186.485L72.1309 185.658ZM58.1261 189.887C58.1261 186.8 56.4916 184.774 53.6845 184.774C50.8825 184.774 49.2835 186.8 49.2835 189.887C49.2835 193.015 50.8825 195 53.6845 195C56.4916 195 58.1261 193.015 58.1261 189.887ZM56.588 189.887C56.588 192.659 55.5779 194.137 53.6845 194.137C51.7962 194.137 50.8013 192.659 50.8013 189.887C50.8013 187.176 51.8114 185.638 53.6845 185.638C55.5576 185.638 56.588 187.171 56.588 189.887ZM39.8624 194.802L43.1923 184.972H42.1618L39.2786 193.761L36.4766 184.972H34.9995L38.2329 194.802H39.8624ZM21.0911 194.802H24.2839C27.2636 194.802 28.9184 193.111 28.9184 189.908C28.9184 186.683 27.1874 184.972 24.2636 184.972H21.0911V194.802ZM24.2636 185.856C26.3296 185.856 27.4006 187.115 27.4006 189.908C27.4006 192.72 26.3296 193.919 24.2839 193.919H22.4921V185.856H24.2636ZM9.23336 184.972L5.84763 194.802H6.84253L7.85267 191.873H11.7054L12.7155 194.802H14.1775L10.8882 184.972H9.23336ZM9.81711 186.013L11.4516 191.126H8.1014L9.81711 186.013Z" fill="white"/>
<path d="M120.541 126.192C119.673 126.192 118.978 126.827 118.46 128.091C117.942 129.356 117.689 131.285 117.689 133.874C117.689 136.464 117.948 138.388 118.46 139.642C118.978 140.896 119.668 141.526 120.541 141.526C121.43 141.526 122.13 140.901 122.638 139.658C123.145 138.414 123.399 136.484 123.399 133.874C123.399 131.265 123.14 129.33 122.623 128.076C122.105 126.817 121.415 126.192 120.541 126.192ZM120.541 125.583C122.866 125.583 124.689 126.243 126.003 127.573C127.318 128.899 127.978 131.001 127.978 133.874C127.978 136.748 127.318 138.845 126.003 140.16C124.689 141.475 122.866 142.135 120.541 142.135C118.232 142.135 116.42 141.475 115.09 140.16C113.765 138.845 113.1 136.748 113.1 133.874C113.1 131.001 113.76 128.899 115.09 127.573C116.42 126.248 118.237 125.583 120.541 125.583ZM102.42 140.825C103.09 140.825 103.679 140.582 104.196 140.099C104.714 139.612 105.019 138.957 105.12 138.124V127.497C104.613 126.807 103.877 126.467 102.902 126.467C101.831 126.467 100.999 127.086 100.415 128.32C99.826 129.554 99.5468 131.397 99.5671 133.844C99.5468 136.312 99.7854 138.094 100.283 139.19C100.775 140.282 101.491 140.825 102.42 140.825ZM109.491 138.368C109.491 139.297 109.633 139.977 109.917 140.404C110.201 140.83 110.704 141.044 111.435 141.044V141.683C110.806 141.622 110.181 141.592 109.552 141.592C107.75 141.592 106.273 141.734 105.12 142.018V139.409C104.43 141.232 103.115 142.14 101.171 142.14C99.2676 142.14 97.755 141.445 96.6331 140.059C95.5113 138.673 94.958 136.581 94.9783 133.788C94.9783 132.006 95.2677 130.503 95.8413 129.279C96.42 128.056 97.2169 127.132 98.2423 126.517C99.2625 125.898 100.435 125.593 101.75 125.593C103.227 125.593 104.349 125.979 105.12 126.746V121.582C105.12 120.653 104.973 119.973 104.679 119.546C104.384 119.12 103.887 118.906 103.176 118.906V118.267C103.826 118.328 104.45 118.358 105.059 118.358C106.821 118.358 108.298 118.216 109.491 117.932V138.368ZM85.1765 139.977C85.9632 139.977 86.6536 139.561 87.2424 138.733V132.509C86.9988 132.915 86.4861 133.357 85.6942 133.844C84.9024 134.352 84.3084 134.854 83.9024 135.362C83.4963 135.87 83.2932 136.596 83.2932 137.55C83.2932 138.378 83.4658 138.992 83.811 139.388C84.1562 139.779 84.6079 139.977 85.1765 139.977ZM82.8415 141.922C81.5471 141.922 80.5775 141.587 79.943 140.922C79.3035 140.252 78.9887 139.373 78.9887 138.282C78.9887 137.373 79.2273 136.616 79.7045 136.017C80.1816 135.418 80.7552 134.961 81.4354 134.636C82.1156 134.311 82.9785 133.966 84.0293 133.605C85.1409 133.219 85.9582 132.869 86.4709 132.559C86.9886 132.245 87.2424 131.813 87.2424 131.27V128.904C87.2424 128.056 87.0444 127.391 86.6485 126.913C86.2526 126.436 85.6435 126.198 84.811 126.198C83.8415 126.198 83.1003 126.441 82.5978 126.929C83.1663 127.132 83.6029 127.436 83.9176 127.838C84.2323 128.244 84.3897 128.721 84.3897 129.264C84.3897 129.955 84.1562 130.498 83.6892 130.904C83.2222 131.31 82.6587 131.513 81.9887 131.513C81.278 131.513 80.7349 131.29 80.3491 130.843C79.9633 130.396 79.7704 129.843 79.7704 129.173C79.7704 128.604 79.9075 128.127 80.1816 127.731C80.4557 127.335 80.877 126.964 81.4405 126.624C81.9887 126.299 82.6587 126.045 83.4607 125.862C84.2577 125.68 85.1358 125.588 86.0851 125.588C87.0749 125.588 87.9378 125.69 88.6637 125.893C89.3947 126.096 89.9987 126.441 90.486 126.924C90.9327 127.37 91.2271 127.914 91.3794 128.564C91.5317 129.213 91.6078 130.092 91.6078 131.204V139.465C91.6078 139.952 91.6535 140.292 91.7449 140.495C91.8363 140.698 92.0139 140.8 92.2779 140.8C92.5824 140.8 92.9479 140.627 93.3692 140.282L93.6738 140.8C92.7652 141.546 91.6485 141.922 90.3337 141.922C89.2221 141.922 88.4404 141.699 87.9937 141.252C87.547 140.805 87.3135 140.211 87.2932 139.46C86.2881 141.1 84.8008 141.922 82.8415 141.922ZM66.5371 128.406C67.4458 126.522 69.0955 125.583 71.4863 125.583C73.065 125.583 74.1766 125.979 74.8264 126.766C75.1715 127.152 75.4202 127.65 75.5675 128.269C75.7197 128.889 75.7959 129.701 75.7959 130.711V138.881C75.7959 139.708 75.938 140.282 76.2223 140.597C76.5065 140.912 77.0141 141.069 77.74 141.069V141.709C75.6334 141.628 74.2984 141.587 73.7299 141.587C73.0396 141.587 71.7249 141.628 69.7858 141.709V141.069C70.3949 141.069 70.8163 140.912 71.0599 140.597C71.3036 140.282 71.4254 139.713 71.4254 138.881V129.437C71.4254 128.604 71.2883 127.98 71.0142 127.553C70.7401 127.127 70.2477 126.913 69.5422 126.913C68.6945 126.913 67.9787 127.243 67.4001 127.898C66.8214 128.558 66.5371 129.391 66.5371 130.402V138.876C66.5371 139.703 66.659 140.277 66.9026 140.592C67.1463 140.907 67.5726 141.064 68.1767 141.064V141.704C66.2326 141.622 64.9788 141.582 64.4103 141.582C63.7199 141.582 62.324 141.622 60.2225 141.704V141.064C60.9332 141.064 61.4306 140.907 61.725 140.592C62.0194 140.277 62.1666 139.708 62.1666 138.876V121.597C62.1666 120.668 62.0194 119.988 61.725 119.561C61.4306 119.135 60.9281 118.922 60.2225 118.922V118.282C60.8722 118.343 61.4966 118.373 62.1057 118.373C63.8671 118.373 65.3443 118.231 66.5371 117.947V128.406ZM53.2125 125.583C53.9637 125.583 54.6693 125.664 55.3393 125.827C56.0094 125.989 56.5627 126.213 57.0094 126.497C57.5373 126.822 57.9433 127.233 58.2378 127.726C58.5322 128.223 58.6794 128.762 58.6794 129.351C58.6794 130.061 58.456 130.64 58.0144 131.097C57.5677 131.554 56.9941 131.783 56.2835 131.783C55.5728 131.783 55.0094 131.58 54.583 131.173C54.1566 130.767 53.9434 130.224 53.9434 129.533C53.9434 128.924 54.1363 128.401 54.5221 127.954C54.9079 127.507 55.3799 127.203 55.9485 127.045C55.786 126.822 55.5373 126.644 55.2073 126.512C54.8723 126.38 54.5119 126.314 54.1312 126.314C52.918 126.314 51.9688 126.974 51.2937 128.305C50.6135 129.63 50.2785 131.366 50.2785 133.514C50.2785 135.682 50.6643 137.241 51.4308 138.19C52.1972 139.14 53.1617 139.617 54.314 139.617C55.0043 139.617 55.6947 139.434 56.3952 139.069C57.0956 138.703 57.7251 138.068 58.2936 137.154L58.8114 137.337C58.4053 138.652 57.6997 139.779 56.6845 140.724C55.6743 141.663 54.3698 142.135 52.7708 142.135C50.6846 142.135 48.9841 141.445 47.6694 140.069C46.3547 138.693 45.6948 136.647 45.6948 133.935C45.6948 132.153 46.0197 130.635 46.6643 129.381C47.3141 128.127 48.2024 127.183 49.3343 126.543C50.4562 125.903 51.7505 125.583 53.2125 125.583ZM35.9386 139.977C36.7305 139.977 37.4157 139.561 38.0046 138.733V132.509C37.7609 132.915 37.2431 133.357 36.4564 133.844C35.6645 134.352 35.0706 134.854 34.6645 135.362C34.2584 135.87 34.0554 136.596 34.0554 137.55C34.0554 138.378 34.228 138.992 34.5731 139.388C34.9132 139.779 35.3701 139.977 35.9386 139.977ZM33.5985 141.922C32.3041 141.922 31.3346 141.587 30.7001 140.922C30.0605 140.252 29.7458 139.373 29.7458 138.282C29.7458 137.373 29.9844 136.616 30.4615 136.017C30.9387 135.418 31.5123 134.961 32.1925 134.636C32.8726 134.311 33.7356 133.966 34.7863 133.605C35.898 133.219 36.7152 132.869 37.2279 132.559C37.7457 132.245 38.0046 131.813 38.0046 131.27V128.904C38.0046 128.056 37.8066 127.391 37.4107 126.913C37.0147 126.436 36.4056 126.198 35.5731 126.198C34.6036 126.198 33.8625 126.441 33.36 126.929C33.9285 127.132 34.365 127.436 34.6797 127.838C34.9944 128.244 35.1518 128.721 35.1518 129.264C35.1518 129.955 34.9183 130.498 34.4513 130.904C33.9843 131.31 33.4209 131.513 32.7508 131.513C32.0402 131.513 31.497 131.29 31.1113 130.843C30.7255 130.396 30.5326 129.843 30.5326 129.173C30.5326 128.604 30.6696 128.127 30.9437 127.731C31.2178 127.335 31.6392 126.964 32.2026 126.624C32.7508 126.299 33.4209 126.045 34.2229 125.862C35.0198 125.68 35.898 125.588 36.8472 125.588C37.837 125.588 38.7 125.69 39.4258 125.893C40.1568 126.096 40.7609 126.441 41.2482 126.924C41.6949 127.37 41.9893 127.914 42.1416 128.564C42.2938 129.213 42.37 130.092 42.37 131.204V139.465C42.37 139.952 42.4157 140.292 42.507 140.495C42.5984 140.698 42.7761 140.8 43.04 140.8C43.3446 140.8 43.7101 140.627 44.1314 140.282L44.4359 140.8C43.5273 141.546 42.4106 141.922 41.0959 141.922C39.9842 141.922 39.2025 141.699 38.7558 141.252C38.3091 140.805 38.0756 140.211 38.0553 139.46C37.0503 141.1 35.563 141.922 33.5985 141.922ZM28.0453 120.816C27.355 120.856 26.8626 120.937 26.558 121.059C26.2535 121.181 26.0453 121.415 25.9337 121.76C25.822 122.105 25.7662 122.659 25.7662 123.43V138.49C25.7662 139.256 25.822 139.815 25.9337 140.16C26.0453 140.505 26.2585 140.739 26.5732 140.861C26.888 140.983 27.3803 141.064 28.0453 141.105V141.714C26.9336 141.653 25.3448 141.622 23.2789 141.622C21.1114 141.622 19.5124 141.653 18.482 141.714V141.105C19.2079 141.064 19.7409 140.983 20.0759 140.861C20.4109 140.739 20.6393 140.505 20.7612 140.16C20.883 139.815 20.9439 139.262 20.9439 138.49V122.608L13.6293 141.739H13.142L4.94412 122.181V136.728C4.94412 137.921 5.00503 138.799 5.12686 139.353C5.24868 139.911 5.51264 140.313 5.91365 140.566C6.31973 140.82 6.97455 140.998 7.88824 141.099V141.709C7.10145 141.648 6.00502 141.617 4.6091 141.617C3.49744 141.617 2.6142 141.648 1.96954 141.709V141.099C2.63958 140.998 3.12689 140.825 3.4416 140.582C3.75632 140.338 3.96951 139.952 4.08119 139.429C4.19286 138.901 4.2487 138.124 4.2487 137.093V123.43C4.2487 122.664 4.19286 122.105 4.08119 121.76C3.96951 121.415 3.75632 121.181 3.4416 121.059C3.12689 120.937 2.63451 120.856 1.96954 120.816V120.206C2.61928 120.267 3.49744 120.298 4.6091 120.298C6.47202 120.298 8.07098 120.267 9.40598 120.206L15.5379 134.997L21.1215 120.298H23.2789C25.3448 120.298 26.9336 120.267 28.0453 120.206V120.816Z" fill="white"/>
<path d="M104.501 170.613C105.293 170.613 105.978 170.197 106.567 169.369V163.144C106.323 163.551 105.811 163.992 105.019 164.48C104.227 164.988 103.633 165.49 103.227 165.998C102.821 166.506 102.618 167.232 102.618 168.186C102.618 169.014 102.79 169.628 103.136 170.024C103.476 170.415 103.933 170.613 104.501 170.613ZM102.161 172.558C100.867 172.558 99.897 172.223 99.2625 171.558C98.6229 170.887 98.3082 170.009 98.3082 168.917C98.3082 168.009 98.5468 167.252 99.0189 166.653C99.496 166.054 100.07 165.597 100.75 165.272C101.43 164.947 102.293 164.602 103.344 164.241C104.455 163.855 105.273 163.51 105.785 163.195C106.303 162.88 106.557 162.449 106.557 161.906V159.54C106.557 158.692 106.359 158.026 105.963 157.549C105.567 157.072 104.958 156.833 104.125 156.833C103.156 156.833 102.415 157.077 101.907 157.564C102.476 157.768 102.912 158.072 103.227 158.473C103.542 158.879 103.699 159.357 103.699 159.9C103.699 160.591 103.466 161.134 102.999 161.54C102.532 161.946 101.968 162.149 101.298 162.149C100.587 162.149 100.044 161.926 99.6585 161.479C99.2727 161.032 99.0798 160.479 99.0798 159.809C99.0798 159.24 99.2169 158.763 99.491 158.367C99.7651 157.971 100.186 157.6 100.75 157.26C101.298 156.935 101.968 156.681 102.77 156.498C103.567 156.315 104.445 156.224 105.394 156.224C106.384 156.224 107.247 156.326 107.973 156.529C108.699 156.732 109.308 157.077 109.795 157.559C110.242 158.006 110.536 158.549 110.689 159.199C110.841 159.849 110.917 160.728 110.917 161.84V170.1C110.917 170.588 110.963 170.928 111.054 171.131C111.146 171.334 111.323 171.436 111.587 171.436C111.892 171.436 112.257 171.263 112.679 170.918L112.983 171.436C112.075 172.187 110.958 172.558 109.643 172.558C108.531 172.558 107.75 172.334 107.303 171.888C106.856 171.441 106.628 170.847 106.603 170.095C105.613 171.74 104.125 172.558 102.161 172.558ZM90.7753 147.445C91.3236 148.578 92.0799 149.69 93.0545 150.771C94.024 151.852 95.0798 152.731 96.2118 153.396L95.9682 153.822C94.7956 153.538 93.6535 153.188 92.552 152.777C91.4505 152.36 90.5622 151.944 89.8972 151.517C89.349 151.944 88.6383 152.365 87.7551 152.792C86.8769 153.218 85.9683 153.563 85.0394 153.822L84.7957 153.396C85.9277 152.726 86.9784 151.863 87.9378 150.801C88.8972 149.74 89.6637 148.618 90.2322 147.445H90.7753ZM90.5063 156.859C89.7804 156.859 89.1764 157.311 88.6992 158.209C88.2221 159.108 87.9226 160.504 87.8058 162.383H92.5723C92.6129 160.783 92.4555 159.463 92.1002 158.423C91.7449 157.382 91.2119 156.859 90.5063 156.859ZM91.7804 170.283C93.4403 170.283 94.7753 169.476 95.7854 167.856L96.3336 168.039C95.9276 169.354 95.2068 170.471 94.1611 171.395C93.1205 172.314 91.821 172.776 90.2627 172.776C88.1155 172.776 86.4099 172.091 85.146 170.725C83.882 169.359 83.2475 167.338 83.2475 164.668C83.2475 161.936 83.9277 159.844 85.283 158.397C86.6383 156.95 88.4404 156.224 90.6891 156.224C94.4961 156.224 96.3946 158.468 96.3946 162.967H87.8668C87.8465 163.271 87.8363 163.744 87.8363 164.393C87.8363 165.729 88.0241 166.841 88.3997 167.734C88.7754 168.623 89.2576 169.273 89.8566 169.679C90.4505 170.08 91.0901 170.283 91.7804 170.283ZM79.5471 156.224C80.4557 156.224 81.146 156.498 81.613 157.041C82.08 157.59 82.3135 158.245 82.3135 159.017C82.3135 159.768 82.0953 160.377 81.6587 160.855C81.2222 161.332 80.6537 161.565 79.943 161.565C79.2527 161.565 78.7095 161.388 78.3034 161.032C77.8974 160.677 77.6943 160.205 77.6943 159.621C77.6943 158.651 78.141 157.859 79.0293 157.255C78.9481 157.234 78.8263 157.224 78.6638 157.224C78.4608 157.224 78.2984 157.245 78.1765 157.285C77.405 157.407 76.7552 157.874 76.2172 158.681C75.6791 159.494 75.4152 160.321 75.4152 161.169V169.217C75.4152 170.146 75.6436 170.796 76.1004 171.162C76.5573 171.527 77.2781 171.71 78.273 171.71V172.35C77.9887 172.35 77.7552 172.339 77.5725 172.319C75.5065 172.258 74.1309 172.228 73.4456 172.228C72.8974 172.228 71.6538 172.258 69.7097 172.319C69.5472 172.339 69.3442 172.35 69.1005 172.35V171.71C69.8264 171.71 70.334 171.552 70.6183 171.238C70.9025 170.923 71.0447 170.354 71.0447 169.522V159.956C71.0447 159.027 70.9025 158.346 70.6183 157.92C70.334 157.493 69.8315 157.28 69.1005 157.28V156.64C69.7503 156.701 70.3746 156.732 70.9837 156.732C72.7858 156.732 74.2629 156.59 75.4152 156.305V159.128C75.8009 158.26 76.3542 157.554 77.0852 157.016C77.8161 156.488 78.6334 156.224 79.5471 156.224ZM65.3696 156.224C66.2782 156.224 66.9686 156.498 67.4356 157.041C67.9026 157.59 68.1361 158.245 68.1361 159.017C68.1361 159.768 67.9178 160.377 67.4813 160.855C67.0447 161.332 66.4762 161.565 65.7656 161.565C65.0752 161.565 64.5321 161.388 64.126 161.032C63.7199 160.677 63.5169 160.205 63.5169 159.621C63.5169 158.651 63.9635 157.859 64.8519 157.255C64.7706 157.234 64.6488 157.224 64.4864 157.224C64.2833 157.224 64.1209 157.245 63.9991 157.285C63.2326 157.407 62.5778 157.874 62.0397 158.681C61.5017 159.494 61.2377 160.321 61.2377 161.169V169.217C61.2377 170.146 61.4661 170.796 61.923 171.162C62.3798 171.527 63.1006 171.71 64.0955 171.71V172.35C63.8113 172.35 63.5778 172.339 63.395 172.319C61.3291 172.258 59.9534 172.228 59.2682 172.228C58.72 172.228 57.4763 172.258 55.5322 172.319C55.3698 172.339 55.1667 172.35 54.9231 172.35V171.71C55.6489 171.71 56.1566 171.552 56.4408 171.238C56.7251 170.923 56.8672 170.354 56.8672 169.522V159.956C56.8672 159.027 56.7251 158.346 56.4408 157.92C56.1566 157.493 55.654 157.28 54.9231 157.28V156.64C55.5728 156.701 56.1972 156.732 56.8063 156.732C58.6083 156.732 60.0854 156.59 61.2377 156.305V159.128C61.6235 158.26 62.1768 157.554 62.9077 157.016C63.6387 156.488 64.4559 156.224 65.3696 156.224ZM45.6034 156.828C44.7354 156.828 44.04 157.463 43.5222 158.727C43.0045 159.991 42.7507 161.921 42.7507 164.51C42.7507 167.1 43.0095 169.024 43.5222 170.278C44.04 171.532 44.7303 172.162 45.6034 172.162C46.4917 172.162 47.1922 171.537 47.6998 170.293C48.2074 169.049 48.4612 167.12 48.4612 164.51C48.4612 161.9 48.2024 159.966 47.6846 158.712C47.1668 157.458 46.4765 156.828 45.6034 156.828ZM45.6034 156.224C47.9282 156.224 49.7506 156.884 51.0653 158.214C52.38 159.54 53.0398 161.642 53.0398 164.515C53.0398 167.389 52.38 169.486 51.0653 170.801C49.7506 172.116 47.9282 172.776 45.6034 172.776C43.2938 172.776 41.4816 172.116 40.1517 170.801C38.8269 169.486 38.1619 167.389 38.1619 164.515C38.1619 161.642 38.8218 159.54 40.1517 158.214C41.4816 156.884 43.2989 156.224 45.6034 156.224ZM27.695 150.421C28.9082 150.421 29.9387 150.593 30.7914 150.939C31.6391 151.284 32.4716 151.766 33.2787 152.396C33.5021 152.578 33.6949 152.67 33.8574 152.67C34.2635 152.67 34.5274 152.061 34.6492 150.847H35.3497C35.2685 152.223 35.2279 154.675 35.2279 158.194H34.5274C34.3447 156.696 34.101 155.554 33.8015 154.762C33.497 153.97 32.9843 153.284 32.2533 152.695C31.7457 152.208 31.162 151.842 30.4919 151.588C29.8219 151.335 29.1265 151.208 28.3955 151.208C26.3499 151.208 24.8321 152.203 23.8423 154.198C22.8525 156.194 22.355 158.676 22.355 161.652C22.355 164.607 22.8728 167.079 23.9032 169.06C24.9336 171.045 26.4717 172.035 28.5174 172.035C29.2077 172.035 29.8879 171.908 30.5681 171.654C31.2483 171.4 31.8168 171.03 32.2838 170.547C33.0351 169.979 33.5528 169.273 33.8472 168.42C34.1416 167.572 34.3701 166.323 34.5325 164.683H35.233C35.233 168.349 35.2736 170.898 35.3548 172.334H34.6543C34.5934 171.685 34.5071 171.228 34.3954 170.953C34.2838 170.679 34.1264 170.542 33.9234 170.542C33.7609 170.542 33.5477 170.623 33.2838 170.786C32.3752 171.436 31.5021 171.923 30.6747 172.258C29.8473 172.593 28.8422 172.761 27.6697 172.761C25.5225 172.761 23.6494 172.324 22.0403 171.456C20.4312 170.588 19.1825 169.324 18.2891 167.673C17.4008 166.023 16.9541 164.053 16.9541 161.768C16.9541 159.54 17.4109 157.57 18.3195 155.848C19.2281 154.127 20.5022 152.792 22.1266 151.842C23.7509 150.898 25.6088 150.421 27.695 150.421Z" fill="white"/>
<path d="M129.947 94.8906H0V95.4695H129.947V94.8906Z" fill="#8CA5D5"/>
<path fill-rule="evenodd" clip-rule="evenodd" d="M100.176 53.6268L118.283 35.5159L86.0952 3.32058C81.6688 -1.10686 74.4253 -1.10686 70.004 3.32058L53.9129 19.4157L64.3188 29.8243C67.4457 32.9519 72.5674 35.5159 75.6994 35.5159H69.6639C66.5371 35.5159 61.4153 32.957 58.2834 29.8243L45.8673 17.4051C41.441 12.9777 34.1974 12.9777 29.7762 17.4051L11.6648 35.5159L43.8521 67.7113C48.2785 72.1388 55.522 72.1388 59.9433 67.7113L86.4403 41.2076C89.5723 38.08 94.689 35.5159 97.8209 35.5159H103.856C100.729 35.5159 95.6077 38.0749 92.4758 41.2076L82.0749 51.6162L84.085 53.6268C88.5114 58.0542 95.7549 58.0542 100.176 53.6268Z" fill="#8CA5D5"/>
</svg>
