<svg width="45" height="45" viewBox="0 0 45 45" fill="none" xmlns="http://www.w3.org/2000/svg">
<g clip-path="url(#clip0_205_1618)">
<path d="M31.433 44.4933C30.909 44.2613 30.724 43.8583 30.738 43.2933C30.765 42.1933 30.751 41.0933 30.744 39.9883C30.734 38.3693 29.584 37.1833 27.969 37.1763C24.321 37.1616 20.6727 37.1616 17.024 37.1763C15.408 37.1833 14.259 38.3683 14.249 39.9883C14.243 41.0883 14.23 42.1883 14.256 43.2883C14.269 43.8533 14.087 44.2593 13.561 44.4883H13.045C12.554 44.2153 12.398 43.7963 12.413 43.2433C12.444 42.1563 12.413 41.0683 12.425 39.9813C12.456 37.3273 14.367 35.3563 17.025 35.3283C20.6743 35.2903 24.3233 35.2903 27.972 35.3283C30.63 35.3563 32.538 37.3283 32.572 39.9813C32.585 41.0683 32.552 42.1563 32.584 43.2433C32.6 43.7973 32.439 44.2133 31.952 44.4883L31.433 44.4933Z" fill="#8CA4D3"/>
<path d="M0.499993 4.63186C0.531798 4.56724 0.558869 4.5004 0.580993 4.43186C0.940993 3.14986 1.94199 2.35686 3.28099 2.33186C4.43999 2.31186 5.59999 2.32186 6.75999 2.33186C7.42199 2.33186 7.81799 2.69486 7.81499 3.25786C7.81199 3.82086 7.41499 4.16986 6.74899 4.17486C5.64899 4.18186 4.54899 4.17486 3.44199 4.17486C2.64799 4.17486 2.32499 4.50086 2.32399 5.30186C2.32399 8.20653 2.32399 11.1119 2.32399 14.0179C2.32399 14.8279 2.66499 15.1599 3.47599 15.1699C5.31499 15.1919 4.83699 14.9619 6.08099 16.3569C6.64099 16.9859 7.19099 17.6229 7.76899 18.2829C8.01899 17.9499 8.24599 17.6399 8.48099 17.3359C8.84799 16.8619 9.36699 16.7539 9.79499 17.0539C10.243 17.3699 10.317 17.9129 9.957 18.4119C9.51899 19.0319 9.06666 19.6425 8.59999 20.2439C8.17499 20.7939 7.56899 20.8209 7.09999 20.2969C6.19999 19.2969 5.33099 18.2689 4.42699 17.2729C4.27388 17.1198 4.07008 17.0281 3.85399 17.0149C3.20799 16.9979 2.56999 17.0039 1.97399 16.6859C1.15899 16.2509 0.729993 15.5429 0.498993 14.6859L0.499993 4.63186Z" fill="#8CA4D3"/>
<path d="M0.5 37.448C0.564 37.218 0.625 36.9869 0.693 36.7579C0.972418 35.8324 1.53731 35.0189 2.30692 34.4337C3.07653 33.8486 4.01145 33.5217 4.978 33.4999C6.811 33.4759 8.644 33.4899 10.478 33.4949C11.088 33.4949 11.503 33.8819 11.497 34.4169C11.491 34.9519 11.097 35.3169 10.461 35.3169C8.771 35.3229 7.082 35.3169 5.392 35.3169C3.456 35.3169 2.33 36.4469 2.328 38.387C2.328 38.859 2.328 39.331 2.328 39.804C2.32 40.332 2.079 40.678 1.663 40.785C1.222 40.897 0.883 40.738 0.588 40.285C0.560943 40.2544 0.531519 40.2259 0.5 40.2V37.448Z" fill="#8CA4D3"/>
<path d="M11.5 7.82479C11.5 6.35079 11.5 4.87679 11.5 3.40279C11.5 1.68279 12.667 0.509789 14.378 0.508789C19.788 0.508789 25.1987 0.508789 30.61 0.508789C32.324 0.508789 33.492 1.67879 33.495 3.39579C33.499 6.35779 33.499 9.32012 33.495 12.2828C33.495 13.9938 32.327 15.1618 30.607 15.1748C29.276 15.1848 27.944 15.1878 26.613 15.1688C26.27 15.1638 26.034 15.2508 25.806 15.5208C25.022 16.4508 24.206 17.3578 23.406 18.2718C22.716 19.0558 22.188 19.0368 21.569 18.2098C20.891 17.3098 20.205 16.4098 19.54 15.4928C19.4723 15.3863 19.3771 15.3 19.2645 15.2431C19.1518 15.1863 19.0259 15.1609 18.9 15.1698C17.426 15.1848 15.951 15.1798 14.477 15.1758C12.645 15.1758 11.497 14.0258 11.495 12.2048C11.4983 10.7448 11.5 9.28479 11.5 7.82479ZM22.556 16.4608C23.304 15.6068 24.038 14.8058 24.725 13.9668C24.8868 13.7503 25.1002 13.5777 25.3458 13.4647C25.5914 13.3516 25.8613 13.3019 26.131 13.3198C27.606 13.3498 29.081 13.3328 30.555 13.3288C31.329 13.3288 31.668 13.0008 31.669 12.2398C31.6737 9.30646 31.6737 6.37312 31.669 3.43979C31.669 2.68779 31.314 2.33979 30.555 2.33979C25.1863 2.33979 19.8173 2.33979 14.448 2.33979C13.67 2.33979 13.329 2.69079 13.328 3.47779C13.324 6.38379 13.324 9.28979 13.328 12.1958C13.328 13.0158 13.653 13.3328 14.48 13.3338C16.098 13.3338 17.716 13.3548 19.333 13.3248C19.956 13.3128 20.384 13.5248 20.74 14.0338C21.3 14.8468 21.927 15.6278 22.554 16.4608H22.556Z" fill="#8CA4D3"/>
<path d="M22.457 32.5722C21.733 32.5666 21.0173 32.4181 20.3508 32.1353C19.6844 31.8524 19.0803 31.4407 18.5733 30.9239C18.0663 30.4071 17.6664 29.7952 17.3964 29.1234C17.1264 28.4517 16.9917 27.7332 17 27.0092C17.024 24.0292 19.53 21.5622 22.517 21.5782C23.2541 21.5581 23.9877 21.6863 24.6742 21.9554C25.3607 22.2245 25.9861 22.6288 26.5133 23.1444C27.0404 23.66 27.4584 24.2764 27.7426 24.9568C28.0267 25.6372 28.1711 26.3678 28.1672 27.1052C28.1633 27.8425 28.0112 28.5716 27.7199 29.249C27.4286 29.9264 27.0041 30.5383 26.4716 31.0483C25.939 31.5583 25.3094 31.956 24.6201 32.2178C23.9308 32.4796 23.1958 32.6002 22.459 32.5722H22.457ZM22.496 23.4272C21.7719 23.4292 21.0646 23.646 20.4637 24.05C19.8628 24.4541 19.3952 25.0274 19.1202 25.6972C18.8452 26.3671 18.7751 27.1035 18.9188 27.8133C19.0624 28.523 19.4134 29.1742 19.9272 29.6844C20.4411 30.1946 21.0948 30.541 21.8055 30.6796C22.5162 30.8182 23.2521 30.7428 23.92 30.463C24.5879 30.1833 25.1579 29.7117 25.5577 29.1079C25.9574 28.5041 26.1692 27.7954 26.166 27.0712C26.1597 26.1029 25.7707 25.1764 25.0839 24.4938C24.3972 23.8111 23.4683 23.4277 22.5 23.4272H22.496Z" fill="#8CA4D3"/>
<path d="M37.221 18.2904C37.947 17.4614 38.671 16.6734 39.346 15.8454C39.746 15.3614 40.183 15.0894 40.819 15.1734C41.0048 15.186 41.1912 15.186 41.377 15.1734C42.367 15.1734 42.667 14.8734 42.667 13.9024C42.667 11.5691 42.667 9.23577 42.667 6.90244C42.667 6.35844 42.667 5.81444 42.667 5.27144C42.659 4.50444 42.331 4.17844 41.561 4.17144C40.516 4.17144 39.472 4.17144 38.427 4.17144C38.2983 4.17545 38.1694 4.17244 38.041 4.16244C37.503 4.10144 37.165 3.73144 37.176 3.22544C37.186 2.74144 37.523 2.34944 38.045 2.34144C39.361 2.31944 40.682 2.27443 41.992 2.36444C43.478 2.46444 44.492 3.64344 44.492 5.13444C44.5 8.15377 44.5 11.1728 44.492 14.1914C44.487 15.7964 43.292 17.0184 41.692 16.9734C41 16.9544 40.562 17.1734 40.146 17.7004C39.462 18.5634 38.71 19.3714 37.978 20.1954C37.404 20.8414 36.825 20.8164 36.31 20.1334C35.888 19.5744 35.466 19.0144 35.053 18.4484C34.669 17.9214 34.726 17.3844 35.189 17.0554C35.623 16.7454 36.147 16.8654 36.529 17.3644C36.755 17.6674 36.976 17.9654 37.221 18.2904Z" fill="#8CA4D3"/>
<path d="M11.5 28.0063C11.4976 28.4869 11.4005 28.9624 11.2143 29.4055C11.0281 29.8486 10.7565 30.2508 10.4149 30.5889C9.72508 31.2718 8.7922 31.6527 7.82151 31.6478C6.85081 31.6429 5.92183 31.2526 5.23892 30.5627C4.556 29.8729 4.1751 28.94 4.18001 27.9693C4.19401 25.9533 5.85601 24.3083 7.85501 24.3293C8.82408 24.3396 9.75008 24.7313 10.4324 25.4195C11.1146 26.1078 11.4982 27.0372 11.5 28.0063ZM7.82001 29.8213C8.18022 29.8219 8.53253 29.7157 8.83247 29.5163C9.13241 29.3168 9.36654 29.0329 9.50529 28.7005C9.64405 28.3681 9.68121 28.002 9.6121 27.6485C9.54298 27.295 9.37069 26.9699 9.11696 26.7142C8.86322 26.4585 8.53943 26.2837 8.18645 26.2119C7.83347 26.1401 7.46713 26.1744 7.13366 26.3107C6.80019 26.4469 6.51454 26.6788 6.31278 26.9772C6.11102 27.2756 6.00218 27.6271 6.00001 27.9873C5.99841 28.4718 6.1892 28.9371 6.53046 29.2809C6.87172 29.6248 7.33554 29.8192 7.82001 29.8213Z" fill="#8CA4D3"/>
<path d="M40.817 27.98C40.8224 28.9493 40.4437 29.8813 39.7639 30.5722C39.084 31.2631 38.1583 31.6567 37.189 31.667C35.196 31.693 33.513 30.039 33.496 28.038C33.4851 27.5529 33.5708 27.0705 33.748 26.6188C33.9253 26.167 34.1905 25.7551 34.5284 25.4068C34.8663 25.0585 35.27 24.7809 35.7161 24.59C36.1623 24.3991 36.6419 24.2989 37.1271 24.295C37.6123 24.2912 38.0935 24.3838 38.5426 24.5676C38.9917 24.7514 39.3997 25.0226 39.7431 25.3655C40.0864 25.7084 40.3582 26.1161 40.5426 26.5649C40.7269 27.0138 40.8202 27.4948 40.817 27.98ZM37.142 26.18C36.7817 26.1856 36.4312 26.2978 36.1346 26.5025C35.8381 26.7071 35.6088 26.9951 35.4759 27.33C35.3429 27.6649 35.3121 28.0317 35.3875 28.384C35.4628 28.7364 35.6409 29.0585 35.8992 29.3097C36.1576 29.5609 36.4845 29.73 36.8389 29.7954C37.1932 29.8609 37.559 29.8199 37.89 29.6777C38.2211 29.5354 38.5025 29.2982 38.6988 28.996C38.8952 28.6939 38.9975 28.3403 38.993 27.98C38.9862 27.4955 38.7875 27.0335 38.4405 26.6954C38.0935 26.3572 37.6265 26.1704 37.142 26.176V26.18Z" fill="#8CA4D3"/>
<path d="M37.342 33.5719C38.457 33.5719 39.585 33.4619 40.683 33.5959C42.776 33.8499 44.401 35.7349 44.483 37.8429C44.509 38.5149 44.5 39.1889 44.49 39.8609C44.481 40.4239 44.112 40.8049 43.597 40.8139C43.053 40.8239 42.686 40.4539 42.671 39.8579C42.659 39.3719 42.671 38.8849 42.671 38.3979C42.671 36.4539 41.546 35.3239 39.614 35.3219C37.967 35.3219 36.321 35.3219 34.675 35.3219C34.4755 35.3307 34.2758 35.3088 34.083 35.2569C33.886 35.1832 33.721 35.0428 33.6166 34.8602C33.5123 34.6775 33.4753 34.464 33.512 34.2569C33.5493 34.0429 33.6618 33.8491 33.8291 33.7106C33.9965 33.572 34.2078 33.4977 34.425 33.5009C35.398 33.4879 36.371 33.5009 37.345 33.5009L37.342 33.5719Z" fill="#8CA4D3"/>
</g>
<defs>
<clipPath id="clip0_205_1618">
<rect width="45" height="45" fill="white"/>
</clipPath>
</defs>
</svg>
