<svg width="64" height="64" viewBox="0 0 64 64" fill="none" xmlns="http://www.w3.org/2000/svg">
<rect width="64" height="64" rx="6" fill="#2B44E7"/>
<path d="M41.7099 27.2899C41.617 27.1962 41.5064 27.1218 41.3845 27.071C41.2627 27.0203 41.132 26.9941 40.9999 26.9941C40.8679 26.9941 40.7372 27.0203 40.6154 27.071C40.4935 27.1218 40.3829 27.1962 40.2899 27.2899L33.9999 33.5899L29.7099 29.2899C29.617 29.1962 29.5064 29.1218 29.3845 29.071C29.2627 29.0203 29.132 28.9941 28.9999 28.9941C28.8679 28.9941 28.7372 29.0203 28.6154 29.071C28.4935 29.1218 28.3829 29.1962 28.2899 29.2899L22.2899 35.2899C22.1962 35.3829 22.1218 35.4935 22.071 35.6154C22.0203 35.7372 21.9941 35.8679 21.9941 35.9999C21.9941 36.132 22.0203 36.2627 22.071 36.3845C22.1218 36.5064 22.1962 36.617 22.2899 36.7099C22.3829 36.8037 22.4935 36.8781 22.6154 36.9288C22.7372 36.9796 22.8679 37.0057 22.9999 37.0057C23.132 37.0057 23.2627 36.9796 23.3845 36.9288C23.5064 36.8781 23.617 36.8037 23.7099 36.7099L28.9999 31.4099L33.2899 35.7099C33.3829 35.8037 33.4935 35.8781 33.6154 35.9288C33.7372 35.9796 33.8679 36.0057 33.9999 36.0057C34.132 36.0057 34.2627 35.9796 34.3845 35.9288C34.5064 35.8781 34.617 35.8037 34.7099 35.7099L41.7099 28.7099C41.8037 28.617 41.8781 28.5064 41.9288 28.3845C41.9796 28.2627 42.0057 28.132 42.0057 27.9999C42.0057 27.8679 41.9796 27.7372 41.9288 27.6154C41.8781 27.4935 41.8037 27.3829 41.7099 27.2899V27.2899Z" fill="white"/>
</svg>
