<svg width="48" height="47" viewBox="0 0 48 47" fill="none" xmlns="http://www.w3.org/2000/svg">
<path d="M45.0794 1.68597C45.0794 0.822216 44.7765 0.522461 43.8976 0.522461H14.2571C13.28 0.522461 12.9973 0.796105 12.9973 1.74342C12.9973 6.73934 12.9973 11.7353 12.9973 16.7312V17.2534C12.9432 17.2738 12.888 17.2912 12.832 17.3056C7.78346 18.1872 5.76746 24.0747 9.20532 27.7647C9.5937 28.1861 9.87799 28.6892 10.0363 29.2353C10.5536 31.1007 10.1035 32.7864 8.81812 34.2486C8.55874 34.5557 8.2298 34.7993 7.85744 34.9601C7.48507 35.1209 7.07954 35.1945 6.67306 35.175C5.77279 35.151 4.87039 35.1656 3.97012 35.175C3.27359 35.175 2.92052 35.5187 2.91839 36.1944C2.91412 38.08 2.91412 39.9649 2.91839 41.849C2.91839 42.553 3.26719 42.8862 3.99146 42.8935C4.53759 42.8935 5.08266 42.8935 5.66719 42.8935C5.66719 43.7155 5.69386 44.4915 5.65759 45.2633C5.63199 45.8169 5.81226 46.22 6.30826 46.4843H44.4416C44.9184 46.2305 45.0912 45.8461 45.0912 45.3082C45.0784 30.7654 45.0745 16.2246 45.0794 1.68597ZM10.0928 21.0134C10.6494 20.2004 11.462 19.5877 12.407 19.2686C13.352 18.9494 14.3776 18.9413 15.3277 19.2454C16.2778 19.5495 17.1005 20.1493 17.6705 20.9533C18.2405 21.7574 18.5266 22.7218 18.4853 23.6997C18.4448 24.669 18.1653 25.6006 17.4613 26.2806C15.1915 28.4791 15.3333 32.5222 16.9461 34.9077C16.9877 34.9672 17.0229 35.0309 17.0987 35.1531H10.4832C10.5899 34.9985 10.6709 34.8816 10.7477 34.7614C12.2752 32.3665 12.6315 29.9037 11.1744 27.3459C10.9641 27.0173 10.7227 26.7089 10.4533 26.4247C9.09972 24.8486 8.95146 22.6804 10.096 21.0134H10.0928ZM4.78186 41.0668V36.9934H23.0603V41.0668H4.78186ZM20.2891 44.6805H7.53279V42.9154H20.2923L20.2891 44.6805ZM43.2224 44.6523H22.1984V42.8872C22.768 42.8872 23.3013 42.8872 23.8357 42.8872C24.5611 42.881 24.9098 42.5488 24.912 41.8428C24.9163 39.9732 24.9163 38.1033 24.912 36.2331C24.912 35.4957 24.5738 35.1698 23.8165 35.1667C22.7787 35.1667 21.7397 35.1552 20.7008 35.1667C20.3489 35.177 19.9992 35.1102 19.6771 34.971C19.355 34.8319 19.0688 34.6239 18.8395 34.3625C17.3056 32.7028 17.0976 29.2959 18.7328 27.5819C20.8352 25.3823 20.8597 21.9962 18.9461 19.6295C17.8976 18.3302 16.5205 17.5668 14.8523 17.2848V2.31786H23.408C23.4805 2.31786 23.5552 2.31786 23.6288 2.31786H43.2224V44.6523Z" fill="#8CA4D3"/>
<path d="M33.1733 41.092C31.9038 41.0951 30.6619 40.7294 29.6048 40.0411C28.5476 39.3528 27.7228 38.3729 27.2346 37.2254C26.7465 36.0779 26.6169 34.8144 26.8624 33.5948C27.1079 32.3752 27.7174 31.2543 28.6137 30.3741C29.5101 29.4938 30.653 28.8936 31.8978 28.6496C33.1426 28.4056 34.4333 28.5286 35.6067 29.0032C36.7801 29.4777 37.7833 30.2824 38.4894 31.3155C39.1954 32.3485 39.5727 33.5635 39.5733 34.8065C39.5705 36.4694 38.8959 38.0637 37.6969 39.2414C36.4978 40.419 34.8716 41.0843 33.1733 41.092ZM37.7408 34.8253C37.7446 33.9363 37.4788 33.0661 36.9771 32.3251C36.4755 31.5841 35.7605 31.0055 34.9227 30.6627C34.0849 30.3199 33.1621 30.2283 32.2711 30.3994C31.3802 30.5706 30.5611 30.9968 29.9177 31.6242C29.2743 32.2515 28.8356 33.0517 28.6571 33.9234C28.4785 34.7951 28.5682 35.6991 28.9148 36.5208C29.2614 37.3426 29.8492 38.0451 30.6039 38.5394C31.3586 39.0337 32.2462 39.2976 33.1541 39.2976C34.3675 39.2965 35.5312 38.8256 36.3913 37.9875C37.2514 37.1495 37.738 36.0124 37.7451 34.8243L37.7408 34.8253Z" fill="#8CA4D3"/>
<path d="M29.0432 11.8321C32.1259 11.8321 35.2089 11.8321 38.2923 11.8321C38.4448 11.826 38.5976 11.8288 38.7499 11.8405C38.9733 11.8654 39.1794 11.9702 39.3287 12.1349C39.478 12.2995 39.5599 12.5123 39.5587 12.7325C39.5575 12.9527 39.4733 13.1646 39.3222 13.3277C39.1712 13.4908 38.9639 13.5935 38.7403 13.6161C38.6033 13.6258 38.4658 13.6283 38.3285 13.6234H19.7333C19.581 13.63 19.4284 13.6251 19.2768 13.6087C19.059 13.5782 18.8598 13.4715 18.7161 13.3083C18.5723 13.1451 18.4938 12.9365 18.495 12.721C18.4961 12.5056 18.5769 12.2978 18.7224 12.1361C18.8679 11.9744 19.0682 11.8698 19.2864 11.8415C19.4384 11.8269 19.5914 11.8227 19.744 11.829C22.8444 11.8304 25.9442 11.8314 29.0432 11.8321Z" fill="#8CA4D3"/>
<path d="M31.7707 19.0087H25.2704C25.1339 19.0087 24.9952 19.0161 24.8587 19.0035C24.6264 18.9914 24.4077 18.8929 24.2471 18.7281C24.0866 18.5633 23.9964 18.3447 23.9951 18.117C23.9937 17.8893 24.0813 17.6696 24.2398 17.503C24.3983 17.3364 24.6159 17.2354 24.848 17.2206C24.9697 17.2123 25.0919 17.2102 25.2139 17.2144H38.3509C38.4882 17.2091 38.6258 17.2123 38.7627 17.2238C38.9881 17.2439 39.1978 17.3454 39.351 17.5087C39.5041 17.6719 39.5897 17.8852 39.591 18.1068C39.5924 18.3285 39.5094 18.5427 39.3582 18.7077C39.207 18.8727 38.9985 18.9767 38.7733 18.9993C38.6216 19.0131 38.4691 19.017 38.3168 19.0108L31.7707 19.0087Z" fill="#8CA4D3"/>
<path d="M31.7632 24.3985H25.2629C25.1103 24.4045 24.9575 24.401 24.8053 24.3881C24.5818 24.3643 24.3752 24.2605 24.225 24.0967C24.0749 23.9328 23.9918 23.7204 23.9918 23.5003C23.9918 23.2802 24.0749 23.0678 24.225 22.9039C24.3752 22.7401 24.5818 22.6363 24.8053 22.6125C24.9418 22.6002 25.079 22.5967 25.216 22.6021H38.3595C38.4815 22.5979 38.6036 22.6 38.7253 22.6083C38.9574 22.6225 39.1752 22.7229 39.3342 22.889C39.4932 23.0552 39.5814 23.2745 39.5807 23.5022C39.5801 23.7299 39.4906 23.9488 39.3306 24.114C39.1706 24.2793 38.9522 24.3784 38.72 24.3912C38.5845 24.4038 38.4459 24.3964 38.3083 24.3964L31.7632 24.3985Z" fill="#8CA4D3"/>
<path d="M23.5499 6.44636C24.8619 6.44636 26.1728 6.44636 27.4848 6.44636C28.1536 6.44636 28.5696 6.78998 28.576 7.33204C28.5824 7.87411 28.1643 8.23862 27.5093 8.23967C24.8711 8.23967 22.2332 8.23967 19.5957 8.23967C18.9259 8.23967 18.5109 7.89604 18.5035 7.35398C18.496 6.79625 18.9205 6.4474 19.6192 6.44636C20.9276 6.44496 22.2379 6.44496 23.5499 6.44636Z" fill="#8CA4D3"/>
</svg>
