<svg width="47" height="42" viewBox="0 0 47 42" fill="none" xmlns="http://www.w3.org/2000/svg">
<path d="M42.9213 6.64321C39.6517 6.62998 36.2826 6.63218 32.9072 6.64983C32.3368 6.65755 32.0527 6.3951 31.9768 5.79854C31.8284 4.59329 31.6745 3.41671 31.4427 2.26991C31.3127 1.64063 30.9796 1.07556 30.498 0.667116C30.0164 0.258677 29.4148 0.0310595 28.7915 0.0215026C25.1448 -0.00716755 21.5889 -0.00716755 18.222 0.0215026C16.8333 0.0325296 15.7043 1.09663 15.4682 2.60954C15.3614 3.31747 15.2546 4.03202 15.1617 4.72341L15.1499 4.8017C15.1018 5.14685 15.0538 5.49199 15.0036 5.83604C14.9886 5.94631 14.9672 6.05658 14.9448 6.16685V6.1878C14.9363 6.23301 14.9277 6.27932 14.9192 6.32784L14.8636 6.63329H10.764C8.53933 6.63329 6.31433 6.63329 4.08897 6.63329C2.37989 6.63329 1.1376 7.40518 0.395224 8.93793C0.27309 9.21386 0.176524 9.50111 0.106817 9.79583C0.0715676 9.92815 0.0363179 10.0594 0 10.1884V38.38C0.137794 39.0681 0.352497 39.8576 0.891925 40.5192C1.21968 40.9371 1.62641 41.2818 2.08735 41.5322C2.54829 41.7827 3.05378 41.9336 3.57304 41.9759C3.79328 41.9951 4.01431 42.0029 4.23531 41.9991H21.0654C28.2991 41.9991 35.5324 41.9991 42.7654 41.9991C44.6229 41.9991 45.8716 41.2437 46.5841 39.6922C46.8397 39.1175 46.9737 38.4931 46.9772 37.8606C47.0018 30.0149 47.006 21.6642 46.9921 10.785C46.9889 8.35791 45.3151 6.65314 42.9213 6.64321ZM17.1356 5.70371C17.1816 5.34092 17.2275 4.98475 17.2766 4.63079C17.3119 4.37386 17.3503 4.11913 17.3835 3.8589L17.3888 3.82251C17.4326 3.53691 17.4753 3.25131 17.5148 2.96571C17.5875 2.43752 17.9154 2.1464 18.4388 2.1464H20.9928C23.4699 2.1464 26.0282 2.1464 28.5448 2.16405C28.8781 2.16405 29.3609 2.49486 29.4282 2.85323C29.5799 3.67585 29.6942 4.48743 29.8149 5.34754L29.8213 5.39385C29.8586 5.6563 29.896 5.91984 29.9345 6.18669L29.9964 6.61564H17.0171L17.1356 5.70371ZM44.9178 28.2694C44.9178 31.3944 44.9178 34.5187 44.9178 37.6423C44.9178 39.1508 44.2352 39.8477 42.7697 39.8477H4.23958C2.74414 39.8477 2.07867 39.1552 2.0776 37.6026V23.6744L2.58391 23.8949C2.61275 23.9082 2.63839 23.9181 2.66189 23.9269C2.74004 23.9533 2.81441 23.9904 2.883 24.0372C4.10926 24.9502 5.51818 25.3946 7.19094 25.3946H7.22085C9.52811 25.3869 11.876 25.388 14.1469 25.3946H18.2529V25.7684C18.2529 25.9118 18.2529 26.0496 18.2529 26.183C18.2529 26.4797 18.2529 26.7509 18.2529 27.0244C18.2359 27.5758 18.4441 27.9363 18.9259 28.1999C20.0667 28.8218 21.2225 29.4603 22.344 30.0745L22.9134 30.3887C23.0897 30.4979 23.2913 30.556 23.4969 30.557C23.7026 30.5579 23.9046 30.5017 24.082 30.3943L26.5655 29.028L28.1068 28.18C28.5533 27.9341 28.7574 27.5835 28.7477 27.0773C28.7477 26.7928 28.7477 26.5083 28.7477 26.2029V25.3913H29.6952C30.569 25.3913 31.4424 25.3895 32.3154 25.3858H32.4543C34.4753 25.3792 36.7676 25.3726 38.9702 25.4023C40.7391 25.4266 42.6094 25.2579 44.3281 23.8586L44.9146 23.3789L44.9178 28.2694ZM26.6691 25.9316C26.6755 26.3661 26.5163 26.644 26.1521 26.8325C25.7878 27.0211 25.4471 27.2119 25.1042 27.4015C24.7186 27.6154 24.3244 27.8338 23.9292 28.0389C23.7953 28.1024 23.6493 28.1341 23.502 28.1315C23.3499 28.1337 23.1994 28.1001 23.0619 28.0334C22.2255 27.6055 21.4062 27.1413 20.7867 26.7862C20.6115 26.6859 20.3508 26.4267 20.3466 26.1246C20.3327 25.0759 20.3337 23.9754 20.3348 23.0051V21.7921H26.6637V23.1506C26.6637 23.4072 26.6637 23.6645 26.6637 23.9225C26.6605 24.5885 26.6584 25.2667 26.6691 25.9316ZM44.9167 18.0253C44.9049 21.0489 42.8872 23.187 40.0031 23.2245C38.7523 23.241 37.4064 23.2477 35.7678 23.2477C34.6612 23.2477 33.5599 23.2477 32.4746 23.241C31.4563 23.241 30.4387 23.2388 29.4218 23.2344C29.339 23.2325 29.2564 23.2237 29.175 23.208L29.0554 23.1881L28.7413 23.1451V22.2155C28.7413 21.7745 28.7413 21.3334 28.7413 20.8923C28.736 19.9837 28.376 19.6121 27.5001 19.6099C24.8062 19.6032 22.1112 19.6032 19.4888 19.6099C18.6183 19.6099 18.2594 19.9859 18.2529 20.8989V21.4911C18.2529 21.9035 18.2476 22.3148 18.2433 22.7272C18.2396 22.8211 18.2096 22.9119 18.1568 22.9885C18.145 23.0058 18.1343 23.0238 18.1248 23.0426L18.0179 23.2333H7.17599C5.00119 23.2333 3.46302 22.2784 2.59887 20.395C2.28063 19.663 2.11053 18.8716 2.09896 18.0694C2.05517 16.2246 2.06478 14.35 2.07332 12.5382C2.07332 11.9869 2.07867 11.4422 2.07973 10.893C2.07973 9.55103 2.83493 8.78024 4.14238 8.78024H42.8594C44.1636 8.78024 44.9135 9.55213 44.9167 10.8996C44.922 13.1877 44.9252 15.6181 44.9167 18.0253Z" fill="#8CA4D3"/>
</svg>
