<svg width="45" height="45" viewBox="0 0 45 45" fill="none" xmlns="http://www.w3.org/2000/svg">
<path d="M43.308 43.9855H1.68L1.009 43.3135V39.5385C1.202 38.8065 1.449 38.1035 1.967 37.5225C2.744 36.6525 3.727 36.2225 4.884 36.1615V18.5995C4 18.5995 3.148 18.5785 2.299 18.6065C1.706 18.6265 1.266 18.4415 1.009 17.8915V13.4425C1.217 13.2265 1.39 12.9515 1.639 12.8035C7.901 9.0702 14.1677 5.34453 20.439 1.62653C21.78 0.83153 23.139 0.79753 24.491 1.59753C30.787 5.33086 37.0813 9.0642 43.374 12.7975C43.788 13.0425 43.987 13.3735 43.982 13.8585C43.971 15.0585 43.982 16.2585 43.977 17.4645C43.977 18.2115 43.623 18.5775 42.877 18.5895C42.094 18.6025 41.311 18.5895 40.528 18.5945C40.382 18.5945 40.236 18.6105 40.094 18.6185V36.1555C40.174 36.1675 40.229 36.1775 40.284 36.1825C42.184 36.3315 43.652 37.6065 43.901 39.4905C44.038 40.5225 43.936 41.5835 43.985 42.6285C44.017 43.2315 43.846 43.6885 43.308 43.9855ZM2.957 16.6155H42.033C42.033 15.9365 42.022 15.2825 42.039 14.6285C42.0506 14.5197 42.0279 14.4099 41.9741 14.3145C41.9204 14.2192 41.8382 14.143 41.739 14.0965C35.683 10.5065 29.63 6.91153 23.58 3.31153C22.831 2.86753 22.116 2.89053 21.37 3.33753C18.529 5.03753 15.678 6.72153 12.832 8.41253C9.64933 10.3025 6.46767 12.1952 3.287 14.0905C3.157 14.1685 2.976 14.3075 2.971 14.4235C2.942 15.1465 2.957 15.8705 2.957 16.6155ZM2.999 42.0155H42.033C42.033 41.4635 42.033 40.9365 42.033 40.4095C42.033 38.8775 41.274 38.1235 39.733 38.1235H5.255C5.115 38.1235 4.975 38.1185 4.835 38.1235C3.903 38.1795 3.119 38.8175 3.016 39.7365C2.934 40.4805 3 41.2375 3 42.0145L2.999 42.0155ZM12.771 18.6265V36.1545H18.562V18.6255L12.771 18.6265ZM32.233 36.1545V18.6255H26.426V36.1545H32.233ZM10.733 36.1655V18.6255H6.905V36.1655H10.733ZM20.577 18.6155V36.1525H24.407V18.6155H20.577ZM38.094 18.6255H34.252V36.1535H38.1L38.094 18.6255Z" fill="#8CA4D3"/>
<path d="M1.009 43.3145L1.68 43.9865H1.009V43.3145Z" fill="#8CA4D3"/>
<path d="M22.474 6.88868C23.2457 6.8869 24.0006 7.11412 24.6432 7.54157C25.2857 7.96903 25.787 8.5775 26.0835 9.28997C26.3801 10.0024 26.4586 10.7869 26.3091 11.544C26.1597 12.3011 25.789 12.9969 25.2439 13.5432C24.6988 14.0895 24.0039 14.4619 23.2472 14.6131C22.4904 14.7643 21.7058 14.6876 20.9926 14.3927C20.2795 14.0977 19.6698 13.5979 19.2409 12.9563C18.812 12.3148 18.583 11.5604 18.583 10.7887C18.583 9.7559 18.9927 8.76528 19.7221 8.03414C20.4515 7.30301 21.4412 6.89107 22.474 6.88868ZM24.438 10.7997C24.4388 10.4149 24.3255 10.0385 24.1124 9.71808C23.8993 9.39767 23.596 9.14762 23.2409 8.99955C22.8857 8.85147 22.4946 8.81201 22.117 8.88616C21.7394 8.96031 21.3923 9.14474 21.1195 9.41613C20.8467 9.68753 20.6605 10.0337 20.5844 10.4109C20.5083 10.7881 20.5458 11.1794 20.692 11.5353C20.8383 11.8912 21.0868 12.1958 21.4061 12.4105C21.7254 12.6253 22.1012 12.7405 22.486 12.7417C23.0022 12.7425 23.4977 12.5385 23.8636 12.1744C24.2296 11.8103 24.4361 11.3159 24.438 10.7997Z" fill="#8CA4D3"/>
</svg>
