<svg width="47" height="47" viewBox="0 0 47 47" fill="none" xmlns="http://www.w3.org/2000/svg">
<path d="M10.6815 15.475C10.2495 15.3147 9.84527 15.0878 9.48355 14.8023L8.88404 16.1476C9.29689 16.4853 9.77205 16.7387 10.2826 16.8933C10.8862 17.0918 11.5127 17.2125 12.1469 17.2526V18.7305H13.2383V17.239C14.241 17.1325 15.0069 16.8286 15.5361 16.3272C15.7903 16.0955 15.9924 15.8125 16.1291 15.4969C16.2658 15.1813 16.3338 14.8402 16.3288 14.4963C16.3288 13.9191 16.1844 13.4553 15.8954 13.1051C15.6111 12.7571 15.2451 12.4848 14.8301 12.3124C14.3141 12.1052 13.7821 11.9403 13.2394 11.8194V9.12996C14 9.21815 14.734 9.46319 15.3951 9.84958L15.9414 8.50433C15.5549 8.25981 15.1357 8.07133 14.6964 7.94451C14.2206 7.80312 13.7298 7.71829 13.2342 7.69176V6.21387H12.1469V7.71891C11.1512 7.8157 10.3922 8.11754 9.87 8.62444C9.61811 8.85878 9.41823 9.1434 9.28329 9.45987C9.14835 9.77634 9.08136 10.1176 9.08666 10.4616C9.08666 11.0395 9.22871 11.5033 9.5128 11.8528C9.79479 12.2021 10.1585 12.4766 10.5719 12.6518C11.0828 12.8627 11.6108 13.0297 12.15 13.1511V15.8144C11.647 15.7709 11.1526 15.6567 10.6815 15.475ZM13.2383 13.431C13.6052 13.52 13.9525 13.6758 14.2629 13.8905C14.3776 13.9728 14.4703 14.0818 14.5331 14.2082C14.5959 14.3345 14.6269 14.4743 14.6233 14.6154C14.6257 14.7591 14.5966 14.9016 14.5379 15.0328C14.4793 15.164 14.3925 15.2807 14.2838 15.3747C14.0575 15.5794 13.7094 15.7187 13.2394 15.7925L13.2383 13.431ZM11.1494 11.0872C11.039 11.0063 10.9498 10.8998 10.8896 10.7768C10.8294 10.6538 10.7999 10.5181 10.8037 10.3812C10.8009 10.2342 10.8291 10.0883 10.8865 9.95292C10.9439 9.81757 11.0292 9.69587 11.1369 9.59578C11.3583 9.38271 11.6957 9.24067 12.149 9.16964V11.5405C11.7901 11.4523 11.4505 11.2987 11.1474 11.0872H11.1494Z" fill="#8CA4D3"/>
<path d="M13.395 18.8865H11.9902V17.3972C11.3934 17.3476 10.8045 17.2281 10.2356 17.041C9.70572 16.8793 9.21256 16.6157 8.78378 16.265L8.69709 16.1887L9.4282 14.551L9.58696 14.6806C9.93642 14.9551 10.3265 15.1736 10.7432 15.3281C11.1461 15.4847 11.5672 15.59 11.9965 15.6414V13.2737C11.4899 13.1539 10.9936 12.9939 10.5123 12.7953C10.0765 12.6095 9.69284 12.3197 9.39478 11.9514C9.08876 11.5733 8.93314 11.072 8.93314 10.461C8.92891 10.0957 9.00106 9.73354 9.14494 9.39775C9.28883 9.06195 9.50128 8.75992 9.76869 8.51102C10.2909 8.00655 11.0398 7.69322 11.9986 7.57728V6.05762H13.4034V7.54491C13.8598 7.57974 14.3111 7.66343 14.7497 7.79453C15.2034 7.92531 15.6363 8.11977 16.0354 8.37211L16.1398 8.44313L15.4776 10.0746L15.322 9.98368C14.7298 9.63923 14.0777 9.40995 13.4002 9.30793V11.6976C13.9102 11.8161 14.4103 11.974 14.8959 12.1697C15.3335 12.3521 15.7197 12.639 16.0207 13.0053C16.3341 13.3834 16.4887 13.8847 16.4887 14.4967C16.4942 14.8614 16.4226 15.2232 16.2786 15.5583C16.1346 15.8935 15.9215 16.1944 15.6531 16.4415C15.1309 16.9407 14.3716 17.2562 13.4055 17.3815L13.395 18.8865ZM12.3036 18.5732H13.0817V17.0974L13.2216 17.0828C14.1846 16.9783 14.9272 16.688 15.4275 16.2128C15.6667 15.9961 15.8567 15.7308 15.9848 15.4347C16.1129 15.1385 16.1761 14.8183 16.1701 14.4957C16.1701 13.9588 16.0375 13.5244 15.7732 13.2037C15.5044 12.8761 15.1594 12.6193 14.7685 12.4559C14.2602 12.2523 13.7362 12.0902 13.2018 11.9713L13.0817 11.9431V8.95386L13.2561 8.97371C13.9783 9.05741 14.6778 9.27864 15.3168 9.62544L15.7461 8.56428C15.4022 8.36219 15.0345 8.20361 14.6515 8.0922C14.189 7.9544 13.7119 7.87167 13.23 7.84571L13.0817 7.83735V6.37095H12.3036V7.86033L12.1615 7.87391C11.2079 7.96791 10.4737 8.25826 9.97863 8.73662C9.74065 8.95552 9.5518 9.22239 9.42451 9.51963C9.29723 9.81686 9.23441 10.1377 9.2402 10.461C9.2402 10.9989 9.3718 11.4334 9.63187 11.754C9.89805 12.083 10.2409 12.3416 10.6304 12.5071C11.1329 12.7142 11.6521 12.8784 12.1824 12.998L12.3036 13.0272V15.9851L12.1323 15.9694C11.616 15.9246 11.1086 15.8072 10.6251 15.6206C10.2425 15.4763 9.87988 15.2836 9.54623 15.0472L9.07518 16.102C9.45257 16.3869 9.87668 16.6039 10.3285 16.7433C10.9197 16.9375 11.5332 17.0558 12.1542 17.0953L12.3004 17.1058L12.3036 18.5732ZM13.0817 15.9694V13.2236L13.2801 13.2789C13.666 13.3738 14.0313 13.5384 14.358 13.7646C14.4912 13.862 14.5987 13.9902 14.6715 14.1382C14.7443 14.2863 14.78 14.4498 14.7758 14.6147C14.7782 14.7805 14.7444 14.9448 14.6768 15.0962C14.6091 15.2475 14.5093 15.3823 14.3841 15.491C14.1355 15.7146 13.7574 15.867 13.2571 15.9422L13.0817 15.9694ZM13.395 13.6413V15.6007C13.6814 15.5564 13.9514 15.4383 14.1783 15.2581C14.2709 15.1788 14.3448 15.08 14.3946 14.9688C14.4445 14.8575 14.4691 14.7366 14.4666 14.6147C14.4702 14.4979 14.4449 14.382 14.393 14.2772C14.341 14.1725 14.2641 14.0821 14.1689 14.0142C13.9329 13.8488 13.6715 13.7228 13.395 13.6413ZM12.3036 11.7467L12.103 11.6903C11.7264 11.5963 11.3702 11.4338 11.0523 11.2109C10.9218 11.1151 10.8164 10.989 10.7455 10.8434C10.6745 10.6979 10.64 10.5372 10.645 10.3753C10.6422 10.2073 10.6747 10.0405 10.7404 9.88582C10.806 9.73111 10.9034 9.59188 11.0262 9.47713C11.2696 9.24317 11.6393 9.08546 12.1218 9.00922L12.3036 8.98206V11.7467ZM11.9902 9.35806C11.7135 9.40586 11.4552 9.52869 11.2434 9.71317C11.1509 9.79864 11.0776 9.90282 11.0285 10.0188C10.9793 10.1348 10.9554 10.2599 10.9583 10.3858C10.9546 10.4987 10.9787 10.6108 11.0284 10.7122C11.0781 10.8136 11.152 10.9013 11.2434 10.9676C11.4704 11.1299 11.7228 11.2534 11.9902 11.3331V9.35806Z" fill="#8CA4D3"/>
<path d="M25.2202 32.0349C25.7683 32.0715 26.3182 32.0715 26.8662 32.0349C27.2255 32.013 27.426 31.7425 27.425 31.3936C27.4311 31.311 27.4203 31.228 27.3934 31.1496C27.3664 31.0713 27.3238 30.9993 27.2681 30.9379C27.2124 30.8765 27.1448 30.8272 27.0695 30.7927C26.9941 30.7583 26.9125 30.7396 26.8297 30.7377C26.579 30.7126 26.3242 30.7377 26.0714 30.7377C25.8187 30.7377 25.5346 30.7168 25.2693 30.7377C24.8902 30.7743 24.676 31.0072 24.6708 31.3874C24.6677 31.7508 24.8651 32.0109 25.2202 32.0349Z" fill="#8CA4D3"/>
<path d="M26.0537 32.2215C25.7675 32.2215 25.4858 32.2117 25.2087 32.1922C24.7826 32.163 24.5089 31.8475 24.5142 31.389C24.5194 30.9305 24.7972 30.6297 25.2547 30.5858C25.4451 30.5718 25.6362 30.5687 25.827 30.5764C25.9858 30.5764 26.1404 30.5764 26.3012 30.5764C26.4826 30.5686 26.6643 30.5718 26.8453 30.5858C26.9472 30.5901 27.0472 30.6146 27.1395 30.6578C27.2318 30.701 27.3147 30.7622 27.3832 30.8377C27.4517 30.9132 27.5045 31.0015 27.5386 31.0976C27.5726 31.1937 27.5873 31.2956 27.5817 31.3974C27.5817 31.8475 27.2997 32.1682 26.8756 32.1953C26.5999 32.2121 26.3252 32.2215 26.0537 32.2215ZM25.5743 30.8856C25.4761 30.8856 25.38 30.8856 25.285 30.8981C24.9852 30.9263 24.8317 31.0924 24.8275 31.3932C24.8275 31.5311 24.863 31.8538 25.2306 31.8799C25.7721 31.916 26.3154 31.916 26.8568 31.8799C27.1159 31.8642 27.2694 31.6836 27.2683 31.3963C27.2673 31.1091 27.1106 30.9253 26.814 30.895C26.6462 30.8825 26.4777 30.8801 26.3095 30.8877C26.1466 30.8877 25.9837 30.8877 25.8197 30.8877C25.7362 30.8877 25.6547 30.8856 25.5743 30.8856Z" fill="#8CA4D3"/>
<path d="M25.2254 28.5394C25.492 28.5607 25.7596 28.5631 26.0265 28.5468V28.5541C26.2935 28.5659 26.5608 28.5642 26.8276 28.5488C26.9105 28.5466 26.9921 28.5277 27.0676 28.4931C27.143 28.4586 27.2106 28.4091 27.2664 28.3478C27.3222 28.2864 27.365 28.2144 27.3923 28.136C27.4196 28.0577 27.4307 27.9746 27.425 27.8919C27.425 27.5222 27.2067 27.2652 26.8245 27.2422C26.3047 27.2161 25.7839 27.2161 25.2641 27.2422C24.9048 27.259 24.6917 27.4929 24.6719 27.8501C24.6489 28.2313 24.8484 28.4862 25.2254 28.5394Z" fill="#8CA4D3"/>
<path d="M26.5216 28.7225C26.437 28.7225 26.3534 28.7225 26.2699 28.7225C26.1863 28.7225 26.1069 28.7225 26.0265 28.7225H25.8751H25.7832C25.5899 28.7342 25.3959 28.7293 25.2035 28.7078C24.7533 28.6441 24.4901 28.3172 24.5152 27.8566C24.5403 27.396 24.8285 27.1255 25.2568 27.1004C25.7988 27.0733 26.3294 27.0733 26.8318 27.1004C27.2851 27.1234 27.5796 27.4399 27.5817 27.9057C27.5876 28.0077 27.5731 28.1099 27.5391 28.2063C27.5051 28.3027 27.4522 28.3914 27.3836 28.4671C27.3149 28.5429 27.2319 28.6042 27.1393 28.6475C27.0467 28.6908 26.9464 28.7152 26.8443 28.7193C26.7369 28.7261 26.6291 28.7271 26.5216 28.7225ZM26.1832 28.4029H26.2782C26.4561 28.4117 26.6344 28.4089 26.8119 28.3945C27.1075 28.3642 27.2694 28.1856 27.2684 27.8942C27.2673 27.6028 27.1023 27.4148 26.8161 27.4002C26.3242 27.3751 25.8041 27.3762 25.2714 27.4002C25.0019 27.4127 24.8442 27.5767 24.8285 27.8598C24.8118 28.1616 24.957 28.3423 25.2463 28.382C25.4198 28.4004 25.5945 28.4043 25.7685 28.3935C25.8531 28.3935 25.9377 28.3872 26.0223 28.3872H26.179L26.1832 28.4029Z" fill="#8CA4D3"/>
<path d="M17.5759 29.4111C16.1401 29.4111 14.7044 29.4111 13.2686 29.4111C11.8182 29.4111 10.3672 29.4111 8.91538 29.4111C8.37435 29.4111 8.07982 29.642 8.06624 30.0576C8.05267 30.4921 8.36495 30.7553 8.91747 30.7553C11.8043 30.7553 14.6912 30.7553 17.578 30.7553C18.1326 30.7553 18.4574 30.4984 18.4574 30.0775C18.4574 29.6566 18.1399 29.4122 17.5759 29.4111Z" fill="#8CA4D3"/>
<path d="M13.2947 30.9154H8.91747C8.57071 30.9154 8.2908 30.8193 8.11847 30.6375C8.04575 30.56 7.9897 30.4683 7.95378 30.3683C7.91785 30.2682 7.90281 30.1619 7.90958 30.0558C7.9242 29.5503 8.2908 29.2589 8.91538 29.2578H17.5759C18.2256 29.2578 18.613 29.5659 18.613 30.0808C18.6172 30.2 18.5929 30.3183 18.5423 30.4262C18.4916 30.5341 18.416 30.6284 18.3216 30.7012C18.1041 30.8525 17.8427 30.9277 17.578 30.9154H13.2947ZM10.7693 29.568H8.91642C8.46522 29.568 8.23231 29.7351 8.22291 30.062C8.21727 30.1262 8.22514 30.1909 8.246 30.2519C8.26687 30.3129 8.30027 30.3688 8.34407 30.4161C8.46 30.5352 8.6574 30.5989 8.91747 30.5989C11.8043 30.5989 14.6908 30.5989 17.577 30.5989C17.7723 30.6108 17.9663 30.5587 18.1295 30.4506C18.1859 30.4068 18.2308 30.35 18.2605 30.2851C18.2901 30.2201 18.3036 30.149 18.2997 30.0777C18.2997 29.6599 17.906 29.5691 17.5759 29.568H10.7693Z" fill="#8CA4D3"/>
<path d="M8.56967 24.8349C8.67411 24.9184 8.883 24.8787 9.05116 24.8787C10.4563 24.8787 11.8614 24.8787 13.2665 24.8787C14.6591 24.8787 16.0496 24.8787 17.438 24.8787C17.6023 24.8849 17.7667 24.8748 17.9289 24.8484C18.2673 24.7785 18.4908 24.5268 18.4324 24.2145C18.3895 23.9816 18.1524 23.7716 17.9676 23.5878C17.9028 23.522 17.7399 23.5408 17.6219 23.5408C14.7211 23.5408 11.8207 23.5408 8.9206 23.5408C8.78691 23.5408 8.60727 23.5199 8.53102 23.5941C8.34825 23.781 8.0934 24.0202 8.09967 24.2312C8.10594 24.4422 8.36914 24.673 8.56967 24.8349Z" fill="#8CA4D3"/>
<path d="M8.79526 25.0452C8.68032 25.0539 8.56589 25.0226 8.47149 24.9564C8.2156 24.7475 7.94926 24.5021 7.943 24.2326C7.93673 23.9631 8.178 23.726 8.37227 23.5276L8.41822 23.4806C8.52266 23.3709 8.69813 23.3761 8.84958 23.3761H8.91955C11.702 23.3761 14.6295 23.3761 17.6219 23.3761C17.6396 23.3761 17.6626 23.3761 17.6845 23.3761C17.8151 23.3761 17.9791 23.3678 18.0804 23.4712L18.1493 23.5412C18.3321 23.7239 18.5399 23.9307 18.5869 24.1825C18.658 24.5668 18.3948 24.9136 17.9603 24.9992C17.7989 25.0268 17.6351 25.038 17.4715 25.0326H17.4422C16.3727 25.0326 15.3032 25.0326 14.2337 25.0326H12.2701C11.1964 25.0326 10.1231 25.0326 9.05011 25.0326C9.01669 25.0326 8.97386 25.0326 8.93418 25.0326C8.89449 25.0326 8.84226 25.0452 8.79526 25.0452ZM8.66889 24.713C8.74993 24.7345 8.83446 24.7395 8.91746 24.7277C8.96238 24.7277 9.00729 24.7224 9.04906 24.7224C10.1221 24.7224 11.1951 24.7224 12.268 24.7224H14.2274C15.2969 24.7224 16.3664 24.7224 17.436 24.7224H17.4704C17.6127 24.7275 17.7551 24.7184 17.8955 24.6953C18.119 24.6493 18.3227 24.4916 18.2767 24.243C18.2475 24.0874 18.0772 23.9161 17.9258 23.7657L17.86 23.6999C17.8041 23.6908 17.7473 23.6884 17.6908 23.6926H17.6198C14.6285 23.6926 11.7009 23.6926 8.91851 23.6926H8.83913C8.76933 23.6857 8.69886 23.6895 8.63024 23.7041L8.58951 23.7469C8.45269 23.8858 8.24693 24.0958 8.25006 24.2232C8.25006 24.3276 8.39211 24.4947 8.66784 24.713H8.66889Z" fill="#8CA4D3"/>
<path d="M17.6198 35.2703C14.7197 35.2654 11.8186 35.2654 8.91642 35.2703C8.36182 35.2703 8.05162 35.5376 8.06624 35.9721C8.07982 36.3899 8.37227 36.6124 8.91851 36.6134C10.3682 36.6134 11.8189 36.6134 13.2697 36.6134C14.7204 36.6134 16.1711 36.6134 17.6219 36.6134C17.9603 36.6134 18.2485 36.5466 18.3937 36.204C18.6068 35.7204 18.2538 35.2713 17.6198 35.2703Z" fill="#8CA4D3"/>
<path d="M17.6313 36.7727H17.6208C16.5586 36.7675 15.4776 36.7727 14.4332 36.7727H12.0727C11.0206 36.7727 9.96888 36.7727 8.91747 36.7727C8.2908 36.7727 7.92629 36.4823 7.90958 35.98C7.90277 35.8736 7.91778 35.7669 7.95371 35.6665C7.98963 35.5661 8.0457 35.4741 8.11847 35.3961C8.29394 35.2133 8.57071 35.1173 8.91643 35.1162C12.4101 35.1162 15.0954 35.1162 17.6198 35.1162C18.0062 35.1162 18.3237 35.2645 18.4929 35.5225C18.5638 35.6333 18.6051 35.7604 18.6129 35.8916C18.6208 36.0229 18.595 36.154 18.5379 36.2724C18.3457 36.7121 17.9551 36.7727 17.6313 36.7727ZM15.5883 36.4594C16.2641 36.4594 16.9461 36.4594 17.6219 36.4594H17.6313C17.9833 36.4594 18.1535 36.3737 18.2506 36.146C18.286 36.0748 18.3028 35.9958 18.2993 35.9163C18.2958 35.8368 18.2723 35.7596 18.2308 35.6917C18.1211 35.5246 17.8987 35.4285 17.6198 35.4275C15.0943 35.4275 12.4101 35.4222 8.91643 35.4275C8.6574 35.4275 8.45896 35.4912 8.34302 35.6113C8.29958 35.6592 8.26648 35.7155 8.24582 35.7768C8.22515 35.8381 8.21735 35.903 8.22291 35.9674C8.22291 36.0886 8.23858 36.4562 8.91851 36.4573C9.96992 36.4573 11.0213 36.4573 12.0727 36.4573H15.5883V36.4594Z" fill="#8CA4D3"/>
<path d="M26.861 34.2497C26.3266 34.2215 25.7911 34.2215 25.2568 34.2497C24.8975 34.2674 24.6886 34.5066 24.6719 34.8638C24.6541 35.2429 24.8557 35.4905 25.2327 35.5458C25.4993 35.5657 25.7669 35.5678 26.0338 35.5521V35.5865C26.316 35.5865 26.598 35.5722 26.8788 35.5437C27.0378 35.5286 27.1845 35.4514 27.287 35.3288C27.3895 35.2062 27.4394 35.0481 27.4261 34.8889C27.4198 34.5379 27.2234 34.2716 26.861 34.2497Z" fill="#8CA4D3"/>
<path d="M25.8803 35.7465V35.7079H25.7915C25.5986 35.7205 25.405 35.716 25.2129 35.6943C24.7554 35.6327 24.4943 35.3162 24.5162 34.8504C24.5382 34.3846 24.8181 34.1078 25.2474 34.0869C25.7874 34.0592 26.3285 34.061 26.8683 34.0921C27.2934 34.1172 27.5733 34.4274 27.5806 34.8807C27.5944 35.0778 27.5312 35.2726 27.4041 35.424C27.2771 35.5754 27.0962 35.6716 26.8997 35.6922C26.6995 35.7181 26.4978 35.7307 26.296 35.7298L26.039 35.7371L25.8803 35.7465ZM26.0338 35.3914H26.1884V35.4207H26.2928C26.4814 35.4216 26.6698 35.41 26.8568 35.3862C26.9174 35.3822 26.9764 35.366 27.0305 35.3385C27.0846 35.3111 27.1326 35.2731 27.1717 35.2266C27.2107 35.1802 27.2399 35.1263 27.2576 35.0683C27.2753 35.0103 27.2811 34.9493 27.2746 34.889C27.2746 34.7522 27.2266 34.4305 26.8568 34.4086C26.3284 34.3803 25.7988 34.3803 25.2703 34.4086C24.9079 34.4263 24.8411 34.7073 24.8338 34.8734C24.8191 35.1731 24.9664 35.3528 25.2588 35.3956C25.4323 35.4139 25.607 35.4178 25.7811 35.4071C25.8646 35.3945 25.9492 35.3914 26.0338 35.3914Z" fill="#8CA4D3"/>
<path d="M39.1667 19.064C34.757 19.0542 30.3474 19.0542 25.9378 19.064C25.12 19.064 24.6698 19.5444 24.6646 20.3591C24.6583 21.3607 24.6646 22.3623 24.6646 23.3629C24.6646 24.4721 25.0667 24.8784 26.1728 24.8794C28.2965 24.8794 30.4202 24.8794 32.5439 24.8794C34.7268 24.8794 36.9086 24.8857 39.0915 24.8794C40.0116 24.8794 40.4587 24.4125 40.4618 23.4903C40.4618 22.4594 40.4681 21.4275 40.4618 20.3967C40.4514 19.5486 40.0022 19.066 39.1667 19.064ZM39.0863 23.5091H26.0307V20.4374H39.0863V23.5091Z" fill="#8CA4D3"/>
<path d="M36.2736 25.0381H26.1717C24.9737 25.0381 24.5068 24.5681 24.5068 23.367V22.6004C24.5068 21.8693 24.5068 21.1079 24.5068 20.3611C24.5131 19.4545 25.0468 18.9125 25.9356 18.9104C30.2722 18.901 34.7236 18.901 39.1656 18.9104C40.0785 18.9104 40.6059 19.4535 40.6132 20.3956C40.6195 21.4609 40.6132 22.5127 40.6132 23.4913C40.6132 24.4981 40.0816 25.0329 39.0862 25.036C38.1536 25.0371 37.2094 25.0381 36.2736 25.0381ZM32.6828 24.7248H34.4834C35.9926 24.7248 37.552 24.7248 39.0862 24.7248C39.9124 24.7248 40.2978 24.33 40.3009 23.4923C40.3009 22.5147 40.3072 21.463 40.3009 20.3997C40.2947 19.6279 39.903 19.2174 39.1667 19.2174C34.7246 19.208 30.2732 19.208 25.9377 19.2174C25.2066 19.2174 24.8264 19.6133 24.8212 20.3569C24.816 21.1006 24.8212 21.8599 24.8212 22.5931V23.3597C24.8212 24.3885 25.1502 24.7175 26.1727 24.7175C27.7707 24.7175 29.3684 24.7175 30.9657 24.7175H32.6838L32.6828 24.7248ZM39.2429 23.6678H25.874V20.2807H39.2429V23.6678ZM26.1874 23.3545H38.9296V20.594H26.1874V23.3545Z" fill="#8CA4D3"/>
<path d="M39.8518 27.2421C39.6012 27.217 39.3463 27.2369 39.0936 27.2358C38.8408 27.2348 38.5567 27.217 38.2914 27.241C37.9112 27.2765 37.695 27.5115 37.6898 27.8896C37.6846 28.2448 37.882 28.51 38.2382 28.5351C38.7866 28.5717 39.3368 28.5717 39.8853 28.5351C40.2425 28.5132 40.4461 28.2468 40.4461 27.8959C40.4518 27.8136 40.4407 27.7309 40.4136 27.653C40.3865 27.575 40.3439 27.5033 40.2884 27.4422C40.2329 27.3812 40.1656 27.3319 40.0906 27.2975C40.0156 27.2631 39.9343 27.2443 39.8518 27.2421Z" fill="#8CA4D3"/>
<path d="M39.0748 28.7224C38.7886 28.7224 38.5055 28.712 38.2277 28.6932C37.7995 28.6629 37.5269 28.3474 37.5332 27.8879C37.5394 27.4283 37.8183 27.1286 38.2778 27.0868C38.468 27.0728 38.6587 27.0696 38.8492 27.0774C38.9359 27.0774 39.0236 27.0774 39.1092 27.0774C39.1949 27.0774 39.2575 27.0774 39.3317 27.0774C39.5103 27.0695 39.6893 27.073 39.8675 27.0879C39.969 27.0929 40.0684 27.118 40.1601 27.1616C40.2519 27.2053 40.3341 27.2666 40.402 27.3421C40.4699 27.4176 40.5223 27.5058 40.556 27.6017C40.5898 27.6975 40.6042 27.799 40.5986 27.9004C40.5986 28.3495 40.3135 28.6691 39.8905 28.6963C39.62 28.712 39.3453 28.7224 39.0748 28.7224ZM38.5964 27.3866C38.4982 27.3866 38.4021 27.3866 38.3061 27.3981C38.0052 27.4263 37.8507 27.5923 37.8465 27.8931C37.8423 28.1939 37.9927 28.3631 38.2496 28.3809C38.7908 28.4169 39.3337 28.4169 39.8748 28.3809C40.1349 28.3652 40.2926 28.1845 40.2926 27.8983C40.2987 27.835 40.2915 27.7711 40.2715 27.7108C40.2516 27.6504 40.2192 27.5948 40.1766 27.5477C40.1339 27.5005 40.0819 27.4627 40.0238 27.4368C39.9657 27.4108 39.9029 27.3973 39.8393 27.397C39.6739 27.3837 39.5079 27.3809 39.3421 27.3887C39.2607 27.3887 39.1792 27.3887 39.0967 27.3887H38.845C38.7583 27.3876 38.6768 27.3855 38.5964 27.3855V27.3866Z" fill="#8CA4D3"/>
<path d="M33.8661 28.5271C34.4312 28.572 34.9989 28.5741 35.5644 28.5333C35.9247 28.5083 36.1085 28.2304 36.097 27.8722C36.0855 27.5139 35.8882 27.281 35.5216 27.2455C35.2698 27.2204 35.014 27.2455 34.7602 27.2455C34.4769 27.2324 34.1931 27.2345 33.91 27.2518C33.5684 27.2883 33.3752 27.5098 33.3575 27.8523C33.3376 28.2095 33.5058 28.4978 33.8661 28.5271Z" fill="#8CA4D3"/>
<path d="M34.7382 28.722C34.4353 28.722 34.1398 28.7094 33.8536 28.6865C33.4306 28.651 33.1747 28.3209 33.2008 27.8436C33.2238 27.4196 33.4828 27.1397 33.8922 27.0958C34.0951 27.0785 34.2988 27.0746 34.5022 27.0843H34.6505H34.7602C34.8374 27.0843 34.9147 27.0843 34.992 27.0843C35.1738 27.076 35.3559 27.0791 35.5372 27.0937C35.9717 27.1376 36.2401 27.429 36.2537 27.8729C36.2683 28.3439 36.002 28.6666 35.5748 28.6959C35.2918 28.7084 35.0119 28.722 34.7382 28.722ZM33.8786 28.3742C34.4348 28.4181 34.9934 28.4199 35.5498 28.3794C35.9122 28.3543 35.9414 28.0222 35.9362 27.8802C35.9278 27.5919 35.7806 27.4311 35.5007 27.4029C35.3325 27.3895 35.1637 27.3867 34.9952 27.3945H34.9126H34.756C34.6672 27.3945 34.5784 27.3945 34.4896 27.3945C34.3003 27.385 34.1104 27.3881 33.9215 27.4039C33.6635 27.4321 33.5246 27.5846 33.5089 27.8582C33.5016 28.0024 33.5214 28.3418 33.8745 28.3711L33.8786 28.3742Z" fill="#8CA4D3"/>
<path d="M39.8007 34.2349C39.5646 34.2161 39.3254 34.2349 39.0873 34.2349C38.8492 34.2349 38.5807 34.2193 38.329 34.2349C37.9332 34.2652 37.6731 34.5347 37.6867 34.895C37.7024 35.2742 37.9123 35.5217 38.2883 35.5457C38.8076 35.576 39.3283 35.576 39.8477 35.5457C40.2268 35.5227 40.4315 35.2648 40.4493 34.8908C40.467 34.5441 40.1882 34.2652 39.8007 34.2349Z" fill="#8CA4D3"/>
<path d="M39.0622 35.7265C38.8004 35.7265 38.5397 35.7188 38.2799 35.7035C37.836 35.6774 37.5488 35.3703 37.53 34.9024C37.5133 34.4554 37.836 34.117 38.3165 34.0794C38.4982 34.0658 38.68 34.0689 38.8544 34.072H39.0873H39.2962C39.4633 34.072 39.6367 34.0658 39.8101 34.0783C40.2832 34.1159 40.6237 34.4689 40.6028 34.8993C40.5798 35.3693 40.2895 35.6774 39.8539 35.7024C39.5928 35.7202 39.3265 35.7265 39.0622 35.7265ZM38.6152 34.3823C38.5233 34.3823 38.4324 34.3823 38.3416 34.3917C38.0282 34.4167 37.8329 34.612 37.8434 34.8899C37.8517 35.1071 37.9384 35.3693 38.2977 35.3901C38.8108 35.4204 39.3252 35.4204 39.8383 35.3901C40.1955 35.3693 40.2821 35.104 40.2936 34.8846C40.3062 34.6225 40.0931 34.4146 39.7881 34.3906C39.6304 34.3791 39.4748 34.3822 39.3056 34.3906C39.2325 34.3906 39.1604 34.3906 39.0873 34.3906H38.8492L38.6152 34.3823Z" fill="#8CA4D3"/>
<path d="M39.88 30.7497C39.346 30.7215 38.8108 30.7215 38.2768 30.7497C37.9154 30.7674 37.7065 31.0108 37.6909 31.3648C37.6731 31.7408 37.8757 31.9967 38.2538 32.0458C38.535 32.066 38.8173 32.0685 39.0988 32.0531V32.0866C39.3661 32.0867 39.6332 32.072 39.8988 32.0427C40.0578 32.0276 40.2044 31.9503 40.3067 31.8277C40.409 31.705 40.4587 31.5469 40.4451 31.3878C40.4399 31.0348 40.2425 30.7716 39.88 30.7497Z" fill="#8CA4D3"/>
<path d="M38.9463 32.2466V32.2079H38.8418C38.6388 32.2195 38.4352 32.215 38.2329 32.1943C37.7807 32.1348 37.5123 31.8121 37.5332 31.3504C37.554 30.8888 37.835 30.6068 38.2643 30.5859C38.8043 30.5583 39.3454 30.56 39.8852 30.5911C40.3103 30.6162 40.5902 30.9254 40.5986 31.3786C40.6124 31.5755 40.5494 31.77 40.4228 31.9213C40.2962 32.0727 40.1159 32.169 39.9197 32.1902C39.7297 32.2159 39.5381 32.2288 39.3463 32.2288C39.2648 32.2288 39.1834 32.2288 39.103 32.2361L38.9463 32.2466ZM39.0988 31.8925H39.2544V31.9207H39.3432C39.5213 31.9211 39.6993 31.9096 39.8758 31.8862C39.9363 31.8819 39.9952 31.8655 40.0492 31.838C40.1031 31.8105 40.151 31.7724 40.19 31.7261C40.2289 31.6797 40.2582 31.626 40.276 31.5681C40.2938 31.5102 40.2998 31.4493 40.2936 31.3891C40.2936 31.2523 40.2456 30.9316 39.8758 30.9086C39.3474 30.8798 38.8178 30.8798 38.2893 30.9086C37.9259 30.9264 37.8601 31.2074 37.8517 31.3745C37.8381 31.6753 37.9864 31.8549 38.2789 31.8967C38.4646 31.9153 38.6514 31.9191 38.8377 31.9082C38.9212 31.8946 39.011 31.8925 39.0988 31.8925Z" fill="#8CA4D3"/>
<path d="M31.1808 34.2467C30.6468 34.2185 30.1116 34.2185 29.5776 34.2467C29.2131 34.2666 29.0157 34.5308 29.0074 34.8734C28.9925 35.0323 29.041 35.1906 29.1423 35.3138C29.2437 35.4371 29.3896 35.5153 29.5484 35.5314C29.814 35.5611 30.0811 35.5761 30.3484 35.5763V35.5429C30.6299 35.5581 30.9121 35.556 31.1934 35.5366C31.5704 35.4886 31.773 35.241 31.7594 34.8588C31.7511 34.5058 31.5422 34.2655 31.1808 34.2467Z" fill="#8CA4D3"/>
<path d="M30.4978 35.7473L30.3359 35.7389C30.2555 35.7389 30.174 35.7327 30.0925 35.7316C29.9011 35.7307 29.7099 35.7175 29.5202 35.6919C29.3237 35.6703 29.1433 35.5729 29.0175 35.4203C28.8917 35.2678 28.8304 35.0722 28.8465 34.8752C28.858 34.4229 29.14 34.1148 29.5651 34.0919C30.1047 34.0631 30.6454 34.0631 31.185 34.0919C31.6164 34.1148 31.8953 34.4052 31.9161 34.8616C31.937 35.318 31.6707 35.6418 31.2132 35.6972C31.0112 35.7169 30.808 35.7211 30.6054 35.7097H30.5009L30.4978 35.7473ZM30.3933 34.3822C30.1228 34.3822 29.8534 34.3895 29.587 34.4052C29.2163 34.425 29.1693 34.7457 29.1693 34.8825C29.1622 34.9423 29.1672 35.003 29.1841 35.0609C29.2009 35.1187 29.2292 35.1726 29.2673 35.2193C29.3054 35.2659 29.3525 35.3045 29.4059 35.3326C29.4592 35.3607 29.5176 35.3777 29.5776 35.3828C29.7538 35.4065 29.9314 35.4184 30.1093 35.4183H30.2012V35.3901H30.3537C30.4424 35.3901 30.5312 35.3901 30.62 35.3964C30.8066 35.4068 30.9938 35.403 31.1798 35.3849C31.4754 35.3473 31.6195 35.176 31.608 34.8689C31.6018 34.7018 31.5381 34.4198 31.1777 34.401C30.9156 34.3895 30.6513 34.3822 30.3933 34.3822Z" fill="#8CA4D3"/>
<path d="M43.9596 18.4206C43.9596 16.7286 43.0196 15.7886 41.3172 15.7886H38.9755C38.9828 14.7723 38.9828 11.1366 38.9755 10.1204C38.9693 9.37257 38.729 8.69995 38.2016 8.16832C35.9205 5.87472 33.636 3.58913 31.348 1.31155C31.0942 1.05529 30.7911 0.853189 30.4571 0.717468C30.123 0.581746 29.7648 0.515231 29.4042 0.521947C21.5514 0.521947 13.6996 0.521947 5.84889 0.521947C4.90889 0.521947 4.14331 0.932413 3.5814 1.68964C3.16363 2.25364 3.03934 2.90015 3.03934 3.59261C3.04351 16.8571 3.04351 30.1215 3.03934 43.3859C3.03934 43.505 3.03934 43.6251 3.03934 43.7452C3.05948 44.3248 3.25782 44.8841 3.60732 45.3468C3.95682 45.8096 4.4405 46.1534 4.99245 46.3313C5.11778 46.3731 5.23998 46.4221 5.36427 46.4671H31.1871C32.43 46.4671 33.6729 46.4695 34.9158 46.4744C35.9331 46.4744 36.9796 46.535 37.8402 45.8978C38.5254 45.3923 38.9181 44.5808 39.0016 43.7431C39.1061 42.7342 39.0612 41.7263 39.056 40.7143C39.8274 40.7143 40.5989 40.7143 41.3704 40.7143C43.0008 40.7143 43.9575 39.7492 43.9586 38.1146C43.9586 34.8246 43.9586 31.5343 43.9586 28.2436C43.96 24.9703 43.9603 21.696 43.9596 18.4206ZM30.9573 2.8803C32.8624 4.78537 34.6996 6.62464 36.5629 8.48897C36.4594 8.50919 36.3547 8.52245 36.2495 8.52866C34.8897 8.52866 33.5295 8.52866 32.1689 8.52866C31.3396 8.52866 30.9615 8.14848 30.9594 7.32232C30.9542 5.86428 30.9573 4.40519 30.9573 2.8803ZM37.6418 43.4246C37.6 44.5871 37.0778 45.1197 35.9184 45.1197H6.12358C4.94336 45.1197 4.3898 44.5703 4.3898 43.3953C4.3898 30.1309 4.3898 16.8665 4.3898 3.60201C4.3898 2.41761 4.93605 1.86719 6.11105 1.86719C13.7703 1.86719 21.4296 1.86719 29.0888 1.86719H29.611V2.40195C29.611 3.98637 29.6612 5.57392 29.5964 7.15626C29.5338 8.66861 30.5542 9.96999 32.3506 9.89166C33.9476 9.82168 35.5508 9.89166 37.1551 9.86868C37.5206 9.86868 37.6533 9.9585 37.6439 10.3408C37.6198 11.2808 37.6303 14.8434 37.6386 15.7855H25.1168C24.5789 15.7855 24.04 15.7761 23.5021 15.7855C22.1736 15.8147 21.1824 16.8069 21.1646 18.1261C21.1563 18.689 21.1573 19.252 21.1646 19.8149C21.1646 19.8839 21.1646 19.9517 21.1646 20.0238C21.1646 24.7948 21.1646 33.3833 21.1646 38.1554C21.1646 39.7607 22.1213 40.7143 23.7371 40.7153H37.6856C37.6804 41.3879 37.6512 43.1959 37.6428 43.4246H37.6418ZM41.2775 39.3753C35.4592 39.3753 29.6403 39.3753 23.8206 39.3753C22.8336 39.3753 22.5078 39.0473 22.5078 38.0561V20.1001C22.5078 19.9956 22.513 19.8912 22.5078 19.7805C22.5078 19.3303 22.5078 18.8801 22.5078 18.43C22.5078 17.466 22.8368 17.1349 23.7977 17.1349H41.2994C42.2781 17.1349 42.6133 17.4733 42.6133 18.4582C42.6133 24.9797 42.6133 31.5009 42.6133 38.0217C42.6133 39.0379 42.2843 39.3753 41.2775 39.3753Z" fill="#8CA4D3"/>
<path d="M35.4276 46.6347H35.1456H33.7001C32.8645 46.6347 32.0269 46.6347 31.1871 46.6347H5.34338L5.31727 46.6253L5.19716 46.5804C5.11569 46.549 5.03318 46.5187 4.95067 46.4916C4.36864 46.3031 3.85869 45.9402 3.49004 45.4519C3.12139 44.9637 2.91189 44.3738 2.88998 43.7625C2.88998 43.658 2.88998 43.5619 2.88998 43.4627V35.4288C2.88998 24.8166 2.88998 14.2047 2.88998 3.59313C2.88998 2.75757 3.07171 2.12359 3.46338 1.59615C4.05975 0.782528 4.86398 0.369973 5.84889 0.369973C13.7292 0.363706 21.4884 0.369973 29.4063 0.369973C29.7876 0.362615 30.1663 0.432897 30.5195 0.576541C30.8726 0.720185 31.1929 0.934188 31.4608 1.20553C34.1533 3.88244 36.33 6.05802 38.3113 8.05499C38.8492 8.59602 39.1249 9.28953 39.1312 10.1157C39.1395 11.0557 39.1395 14.4324 39.1312 15.6324H41.3151C43.0907 15.6324 44.1142 16.6487 44.1142 18.4211C44.1142 20.7133 44.1142 23.0062 44.1142 25.2998V31.1487C44.1142 33.4715 44.1142 35.794 44.1142 38.1162C44.1142 39.8416 43.0875 40.8714 41.3705 40.8725H39.2147C39.2147 41.026 39.2147 41.1806 39.22 41.3341C39.2444 42.1427 39.2242 42.952 39.1594 43.7583C39.0654 44.692 38.6194 45.5171 37.9342 46.0237C37.1822 46.5825 36.2965 46.6347 35.4276 46.6347ZM5.39873 46.3119H31.1871C32.0227 46.3119 32.8603 46.3119 33.7001 46.3119H35.1477C36.0971 46.3172 36.9942 46.3234 37.7483 45.7657C38.3625 45.3114 38.7625 44.5667 38.8471 43.7207C38.9112 42.9262 38.931 42.1287 38.9066 41.332C38.9066 41.1231 38.9045 40.9143 38.9003 40.7054V40.5487H41.3726C42.9173 40.5487 43.803 39.6578 43.804 38.1057C43.804 35.7843 43.804 33.4618 43.804 31.1383V25.2894C43.804 22.9958 43.804 20.7029 43.804 18.4107C43.804 16.8147 42.9215 15.9353 41.3182 15.9353H38.8189V15.7672C38.8262 14.7227 38.8262 11.087 38.8189 10.1084C38.8126 9.36682 38.5682 8.75059 38.0878 8.26597C36.1033 6.27213 33.9298 4.09446 31.2373 1.41233C30.9978 1.17077 30.7118 0.980453 30.3965 0.852968C30.0812 0.725482 29.7432 0.663493 29.4032 0.670773C21.4853 0.670773 13.7261 0.670773 5.84576 0.670773C4.96738 0.670773 4.24776 1.04155 3.70673 1.77057C3.35684 2.24057 3.19495 2.81502 3.19495 3.58059C3.19913 14.1921 3.19913 24.8041 3.19495 35.4163V43.4418C3.19495 43.5369 3.19495 43.6319 3.19495 43.7269C3.21425 44.2747 3.40174 44.8032 3.73193 45.2407C4.06213 45.6781 4.51901 46.0033 5.04049 46.172C5.12718 46.2002 5.21387 46.2326 5.29951 46.2649L5.39873 46.3119ZM21.0215 45.279H6.12358C4.85144 45.279 4.23313 44.6638 4.23313 43.399C4.23313 30.1345 4.23313 16.8701 4.23313 3.60566C4.23313 2.33248 4.84727 1.71417 6.11313 1.71417C12.07 1.71417 18.0264 1.71417 23.9825 1.71417H29.7667V2.40246C29.7667 2.88395 29.7667 3.37379 29.775 3.84797C29.7855 4.93419 29.797 6.05802 29.7521 7.16304C29.7207 7.91713 29.9662 8.59393 30.4424 9.06915C30.9187 9.54437 31.5715 9.76893 32.3423 9.73551C33.3324 9.69268 34.3393 9.70104 35.3127 9.70939C35.9143 9.71462 36.5368 9.71984 37.1478 9.70939C37.3253 9.70939 37.5248 9.72402 37.6554 9.85666C37.7859 9.98931 37.7985 10.1857 37.7943 10.3423C37.7713 11.2823 37.7817 14.8334 37.7943 15.7734V15.9437H25.1168H24.6197C24.2541 15.9437 23.876 15.9437 23.5052 15.9437C22.2519 15.9708 21.338 16.891 21.3213 18.1297C21.3129 18.7229 21.315 19.3151 21.3213 19.8154C21.3213 19.8572 21.3213 19.8969 21.3213 19.9355V23.2287C21.3213 28.0331 21.3213 34.3228 21.3213 38.1538C21.3213 39.6797 22.2028 40.556 23.7381 40.556H37.8434V40.7137C37.8381 41.4072 37.8089 43.2005 37.8005 43.4293C37.7515 44.6899 37.154 45.2769 35.9205 45.2769L21.0215 45.279ZM18.9327 2.02542H6.11104C5.029 2.02542 4.54438 2.51213 4.54438 3.60357C4.54438 16.8694 4.54438 30.1339 4.54438 43.3969C4.54438 44.481 5.03109 44.9636 6.12149 44.9636H35.9185C36.9754 44.9636 37.4444 44.5009 37.4851 43.4167C37.4924 43.2079 37.5196 41.6412 37.5269 40.8725H23.735C22.0263 40.8725 21.0059 39.8562 21.0059 38.1569C21.0059 34.3259 21.0059 28.0331 21.0059 23.2318V19.9418C21.0059 19.9011 21.0059 19.8593 21.0059 19.8186C21.0059 19.3183 21.0007 18.724 21.0059 18.1287C21.0278 16.7113 22.0754 15.6669 23.5 15.6345C23.875 15.6262 24.2562 15.6283 24.6238 15.6345H25.1189H37.4778C37.4695 14.5232 37.4611 11.2479 37.4841 10.3392C37.4979 10.2505 37.4806 10.1597 37.435 10.0823C37.3974 10.0436 37.3044 10.0269 37.154 10.0279C36.5389 10.0353 35.9153 10.0279 35.3127 10.0279C34.3424 10.0196 33.3397 10.0112 32.3579 10.0541C31.4984 10.0917 30.7589 9.8295 30.2241 9.29579C29.6894 8.76208 29.4063 7.99859 29.4408 7.15573C29.4857 6.05906 29.4742 4.93837 29.4638 3.85633C29.4638 3.38111 29.4554 2.89022 29.4554 2.40768V2.02542H18.9285H18.9327ZM32.3538 39.5293H23.8207C22.7501 39.5293 22.3511 39.1293 22.3511 38.0535V20.1006C22.3511 20.063 22.3511 20.0254 22.3511 19.9878C22.3511 19.922 22.3511 19.8551 22.3511 19.7883C22.3511 19.5199 22.3511 19.2587 22.3511 18.9987V18.4305C22.3511 17.3725 22.7449 16.9787 23.7977 16.9787H41.2994C42.3575 16.9787 42.77 17.3965 42.77 18.4587C42.77 24.9802 42.77 31.5014 42.77 38.0222C42.77 39.1199 42.3658 39.5283 41.2775 39.5283H32.3496L32.3538 39.5293ZM41.2817 39.216C42.1966 39.216 42.4609 38.9486 42.4609 38.0232C42.4609 31.5017 42.4609 24.9806 42.4609 18.4597C42.4609 17.5657 42.1903 17.2931 41.3036 17.2931H23.7977C22.9203 17.2931 22.6655 17.549 22.6645 18.4326V18.9987C22.6645 19.2598 22.6645 19.5209 22.6645 19.7831C22.6645 19.8499 22.6645 19.923 22.6645 19.9919C22.6645 20.0275 22.6645 20.063 22.6645 20.0964V38.0525C22.6645 38.9538 22.9245 39.2149 23.8207 39.2149C29.6403 39.2163 35.4593 39.2163 41.2775 39.2149L41.2817 39.216ZM33.8661 8.69002C33.3053 8.69002 32.736 8.69002 32.172 8.69002C31.2561 8.69002 30.809 8.2409 30.8069 7.33224C30.8069 6.30659 30.8069 5.28199 30.8069 4.23442V2.50691L36.9034 8.60751L36.59 8.64928L36.4992 8.66391C36.4193 8.67983 36.3383 8.68891 36.2569 8.69106C35.4996 8.68793 34.6902 8.68897 33.8619 8.68897L33.8661 8.69002ZM31.1182 3.25891V4.22815C31.1182 5.27259 31.1182 6.29928 31.1182 7.32388C31.1182 8.06648 31.4253 8.36833 32.171 8.36833C33.558 8.36833 34.9743 8.36833 36.2266 8.36833L31.1182 3.25891Z" fill="#8CA4D3"/>
<path d="M31.1662 30.7417C30.9156 30.7156 30.6618 30.7417 30.409 30.7355C30.1562 30.7292 29.8722 30.7167 29.6069 30.7407C29.524 30.7422 29.4423 30.7605 29.3667 30.7946C29.2912 30.8286 29.2233 30.8776 29.1673 30.9386C29.1112 30.9997 29.0681 31.0715 29.0406 31.1496C29.0131 31.2278 29.0018 31.3108 29.0074 31.3935C29.0074 31.7402 29.2027 32.0139 29.563 32.0369C30.1111 32.0729 30.661 32.0729 31.209 32.0369C31.5642 32.0128 31.7616 31.7559 31.7595 31.3956C31.7574 31.0112 31.5422 30.7804 31.1662 30.7417Z" fill="#8CA4D3"/>
<path d="M30.3933 32.2204C30.1176 32.2204 29.8377 32.2121 29.5578 32.1943C29.1348 32.1672 28.8528 31.8455 28.8559 31.3932C28.8507 31.2913 28.8659 31.1893 28.9005 31.0932C28.9351 30.9972 28.9884 30.909 29.0574 30.8337C29.1264 30.7585 29.2097 30.6978 29.3024 30.655C29.3952 30.6123 29.4954 30.5884 29.5975 30.5848C29.788 30.5716 29.979 30.5688 30.1698 30.5765H30.432C30.5061 30.5765 30.5792 30.5765 30.6534 30.5765C30.8313 30.5685 31.0096 30.572 31.1871 30.5869C31.6446 30.6329 31.9182 30.9347 31.9182 31.3943C31.9182 31.8538 31.6477 32.1651 31.2216 32.1933C30.9469 32.2121 30.6691 32.2204 30.3933 32.2204ZM29.9171 30.8856C29.8189 30.8856 29.7218 30.8856 29.6257 30.8971C29.2518 30.9305 29.1713 31.1864 29.1692 31.3953C29.1692 31.6836 29.3196 31.8653 29.5776 31.881C30.1191 31.9165 30.6623 31.9165 31.2038 31.881C31.5715 31.8559 31.6091 31.5332 31.608 31.3963C31.608 31.0955 31.4545 30.9284 31.1558 30.8981C30.9911 30.8848 30.8257 30.882 30.6607 30.8898H30.4132H30.1625C30.0737 30.8877 29.9923 30.8856 29.9119 30.8856H29.9171Z" fill="#8CA4D3"/>
<path d="M31.1954 27.2471C30.9288 27.2299 30.6613 27.2278 30.3944 27.2409C30.127 27.2409 29.8575 27.2221 29.5922 27.2409C29.4327 27.2463 29.2817 27.3146 29.1722 27.4307C29.0626 27.5469 29.0034 27.7016 29.0074 27.8613C28.9917 28.208 29.1745 28.4994 29.5296 28.5266C30.0918 28.5673 30.6562 28.5673 31.2184 28.5266C31.5735 28.5015 31.7636 28.2341 31.7553 27.8738C31.7469 27.5135 31.5547 27.2879 31.1954 27.2471Z" fill="#8CA4D3"/>
<path d="M30.3996 28.7221C30.104 28.7221 29.8105 28.7117 29.5223 28.6898C29.0982 28.6574 28.8288 28.3242 28.8517 27.8605C28.8497 27.6623 28.9248 27.4711 29.0613 27.3274C29.1978 27.1838 29.3848 27.0988 29.5828 27.0907C29.773 27.0775 29.9637 27.0747 30.1542 27.0824H30.3986H30.5552H30.6419C30.8338 27.0727 31.0261 27.0765 31.2174 27.0938C31.6477 27.1429 31.9109 27.4364 31.9203 27.8793C31.9308 28.343 31.6623 28.6616 31.2372 28.6908C30.9552 28.7086 30.6764 28.7221 30.3996 28.7221ZM29.8972 27.3915C29.799 27.3915 29.703 27.3915 29.6069 27.403C29.5465 27.4043 29.487 27.4177 29.4319 27.4423C29.3768 27.467 29.3272 27.5024 29.2859 27.5464C29.2447 27.5905 29.2126 27.6424 29.1917 27.699C29.1708 27.7556 29.1614 27.8158 29.164 27.8761C29.1536 28.1028 29.2476 28.3545 29.5452 28.3764C30.1015 28.4169 30.6601 28.4169 31.2164 28.3764C31.5777 28.3514 31.6101 28.0234 31.607 27.8834C31.6007 27.5962 31.4576 27.4343 31.1819 27.403C31.0051 27.3872 30.8275 27.3841 30.6503 27.3936C30.5667 27.3936 30.4821 27.3936 30.3986 27.3936H30.2419H30.1468C30.0591 27.3894 29.9756 27.3873 29.8972 27.3873V27.3915Z" fill="#8CA4D3"/>
<path d="M35.4746 34.2359C35.2218 34.2181 34.9659 34.2359 34.7121 34.2359C34.4583 34.2359 34.2024 34.2171 33.9507 34.2359C33.5893 34.2672 33.3763 34.4813 33.3575 34.8469C33.3376 35.2302 33.5298 35.5049 33.9121 35.5331C34.4483 35.5691 34.9864 35.5691 35.5226 35.5331C35.9059 35.5091 36.1096 35.2407 36.097 34.8594C36.0845 34.4782 35.8589 34.2631 35.4746 34.2359Z" fill="#8CA4D3"/>
<path d="M34.732 35.7199C34.4489 35.7199 34.1711 35.7095 33.8964 35.6897C33.4473 35.6573 33.1726 35.3231 33.1966 34.8395C33.2196 34.3966 33.488 34.1199 33.933 34.0802C34.1137 34.068 34.295 34.0653 34.4761 34.0718H34.5962H34.7079H34.9409C35.1174 34.0718 35.2991 34.0656 35.4808 34.0781C35.9467 34.1105 36.2339 34.4039 36.2496 34.8614C36.2652 35.3408 35.9832 35.6677 35.5278 35.697C35.2615 35.7199 34.9941 35.7199 34.732 35.7199ZM34.24 34.382C34.1471 34.382 34.0562 34.382 33.9643 34.3925C33.6802 34.4175 33.5277 34.5731 33.5141 34.8551C33.5047 35.039 33.5455 35.3502 33.9236 35.3774C34.4528 35.413 34.9839 35.413 35.5132 35.3774C35.8997 35.3533 35.9467 35.0463 35.9404 34.8656C35.93 34.5679 35.7691 34.406 35.4631 34.3841C35.296 34.3726 35.1278 34.3758 34.9513 34.3789H34.8688H34.7121C34.6327 34.3789 34.5534 34.3789 34.4729 34.3789L34.24 34.382Z" fill="#8CA4D3"/>
<path d="M35.4599 30.736C34.968 30.7193 34.474 30.7172 33.981 30.736C33.5998 30.7517 33.3784 30.9762 33.3543 31.3627C33.3303 31.7491 33.5632 32.006 33.9695 32.0499C34.2082 32.063 34.4474 32.063 34.686 32.0499C34.9543 32.0623 35.2231 32.0605 35.4913 32.0447C35.8882 32.0029 36.1305 31.7178 36.0981 31.3491C36.0657 30.9804 35.8433 30.7496 35.4599 30.736Z" fill="#8CA4D3"/>
<path d="M34.239 32.2225C34.1438 32.2232 34.0486 32.2187 33.9538 32.2089C33.4671 32.1567 33.1716 31.8225 33.1987 31.3567C33.2259 30.8908 33.512 30.6015 33.9747 30.5817C34.4374 30.5618 34.9304 30.5608 35.4662 30.5817C35.9268 30.5974 36.215 30.8752 36.2558 31.3441C36.2965 31.8131 35.9884 32.1588 35.509 32.2089C35.3173 32.2254 35.1247 32.2289 34.9325 32.2194C34.85 32.2194 34.7685 32.2194 34.687 32.2194H34.4781C34.3988 32.2204 34.3184 32.2225 34.239 32.2225ZM34.7205 30.8794C34.4687 30.8794 34.2254 30.8846 33.9894 30.895C33.6865 30.9076 33.5308 31.0653 33.5131 31.3755C33.4953 31.6857 33.6687 31.8632 33.9883 31.8977C34.1481 31.9107 34.3086 31.9131 34.4687 31.905L34.687 31.8998C34.7716 31.8998 34.8562 31.8998 34.9408 31.8998C35.1194 31.9086 35.2984 31.9058 35.4766 31.8914C35.79 31.859 35.9686 31.6522 35.9445 31.3692C35.9174 31.0559 35.7576 30.9034 35.4557 30.8929C35.1978 30.8835 34.9565 30.8794 34.7205 30.8794Z" fill="#8CA4D3"/>
</svg>
