<svg width="47" height="47" viewBox="0 0 47 47" fill="none" xmlns="http://www.w3.org/2000/svg">
<path d="M44.5341 28.91C42.4003 27.8008 40.3009 26.6258 38.1744 25.5009C37.8151 25.3108 37.6731 25.1082 37.6741 24.6873C37.6909 19.6468 37.6804 14.6063 37.6919 9.56584C37.7043 9.34381 37.6633 9.12206 37.5725 8.9191C37.4816 8.71614 37.3435 8.53787 37.1697 8.39919C34.2243 5.90576 31.2863 3.40431 28.3556 0.894862C28.076 0.645475 27.7118 0.512124 27.3373 0.521996C21.1897 0.530351 15.0417 0.53244 8.89345 0.528263C6.95914 0.528263 5.65567 1.83486 5.64418 3.76604C5.64418 4.30288 5.64418 4.84077 5.64418 5.45177H4.29789C2.24138 5.45177 0.975517 6.72182 0.975517 8.7825C0.975517 20.1043 0.993273 31.426 0.956717 42.7489C0.950451 44.4388 1.50609 45.9344 3.57827 46.4817H37.1488C39.8529 45.3182 41.6618 43.2032 43.1585 40.778C44.9142 37.9308 45.9952 34.8675 46.0433 31.4824C46.06 30.2886 45.6036 29.4667 44.5341 28.91ZM28.5133 3.41406L34.2995 8.34279C32.7976 8.34279 31.4378 8.36577 30.0779 8.33339C29.6757 8.31772 29.2938 8.15288 29.0065 7.87098C28.7192 7.58909 28.5471 7.21033 28.5238 6.80851C28.4757 5.72019 28.5133 4.62875 28.5133 3.41406ZM7.45107 3.75977C7.45107 2.86782 7.96076 2.33724 8.82765 2.33724C14.6912 2.33237 20.555 2.33237 26.4192 2.33724C26.4767 2.33724 26.5352 2.34873 26.6709 2.36126C26.6709 2.83857 26.6709 3.28455 26.6709 3.72948C26.6856 4.85017 26.6354 5.97817 26.7378 7.0905C26.8903 8.74699 28.3138 10.0807 29.9829 10.1382C31.7459 10.1998 33.512 10.1643 35.2771 10.1716H35.8547C35.8641 10.3669 35.8777 10.5236 35.8777 10.6813C35.8777 15.3813 35.8777 20.074 35.8871 24.7698C35.8871 25.1239 35.7712 25.2973 35.4693 25.4581C33.3073 26.607 31.1662 27.8029 28.9938 28.934C27.9566 29.4729 27.5086 30.2594 27.5148 31.4177C27.5274 34.2011 28.2846 36.7809 29.5244 39.2427C29.5849 39.3628 29.6476 39.4818 29.7061 39.603C29.717 39.6451 29.724 39.6881 29.727 39.7315C29.5693 39.7377 29.4136 39.7513 29.258 39.7513C26.7514 39.7513 15.8797 39.7513 13.0472 39.7513H13.0221C11.6456 39.7513 10.269 39.7513 8.89345 39.7513C7.95345 39.7513 7.45003 39.2531 7.45003 38.311C7.44794 26.7936 7.44828 15.2765 7.45107 3.75977ZM33.0859 44.6706H4.31983C3.26598 44.6706 2.78032 44.1881 2.78032 43.1364C2.78032 31.6802 2.78032 20.2237 2.78032 8.76684C2.78032 7.73493 3.26076 7.25657 4.2864 7.25239C4.71776 7.25239 5.15016 7.25239 5.64418 7.25239V7.8425C5.64418 17.9987 5.64418 28.1542 5.64418 38.3089C5.64418 39.932 6.57269 41.1477 8.06938 41.4861C8.30329 41.5347 8.54177 41.5578 8.78065 41.5551C10.0862 41.5613 11.3911 41.5613 12.6952 41.5551H12.9699C15.9027 41.5551 27.5316 41.5551 30.4633 41.5498C30.5936 41.5423 30.7236 41.5688 30.8404 41.6269C30.9573 41.685 31.057 41.7725 31.1297 41.8809C31.8681 42.8157 32.6399 43.7244 33.4013 44.6456C33.3324 44.6529 33.2133 44.6706 33.0859 44.6706ZM41.6002 39.8578C40.5244 41.6083 39.2283 43.1489 37.4955 44.2978C36.9733 44.6445 36.5754 44.6424 36.0542 44.2926C34.3152 43.1249 33.0086 41.577 31.9276 39.8088C30.4111 37.3366 29.4304 34.691 29.3374 31.7592C29.3426 31.6998 29.3426 31.64 29.3374 31.5806C29.2424 31.0093 29.5056 30.7002 30.01 30.4317C32.1668 29.3037 34.3037 28.134 36.4407 26.9715C36.5434 26.9032 36.664 26.8668 36.7874 26.8668C36.9108 26.8668 37.0314 26.9032 37.1342 26.9715C39.3097 28.1611 41.4885 29.3445 43.6797 30.5028C44.0975 30.7231 44.2479 30.9957 44.2416 31.4543C44.1915 34.5218 43.1815 37.2802 41.6002 39.8578Z" fill="#8CA4D3"/>
<path d="M21.6566 23.0824H12.4655C12.301 23.0865 12.1365 23.0824 11.9725 23.0698C11.7695 23.054 11.5786 22.9671 11.4334 22.8244C11.2882 22.6817 11.198 22.4923 11.1787 22.2896C11.1472 22.0802 11.1945 21.8666 11.3114 21.6901C11.4283 21.5136 11.6066 21.3867 11.8116 21.334C12.0001 21.2897 12.1936 21.2703 12.3871 21.2765C18.5765 21.2765 24.7662 21.2765 30.9563 21.2765C31.1649 21.2702 31.3733 21.2948 31.5746 21.3496C31.983 21.4781 32.2013 21.8645 32.1501 22.3001C32.1305 22.4949 32.0446 22.6772 31.9068 22.8163C31.7689 22.9555 31.5875 23.0431 31.3929 23.0646C31.2294 23.0806 31.0651 23.0862 30.9009 23.0813L21.6566 23.0824Z" fill="#8CA4D3"/>
<path d="M21.714 12.2446H30.8654C31.0447 12.2401 31.2241 12.2481 31.4022 12.2687C31.6016 12.3 31.7844 12.3984 31.9205 12.5474C32.0565 12.6965 32.1378 12.8874 32.151 13.0888C32.1641 13.2903 32.1083 13.4901 31.9927 13.6556C31.8771 13.8211 31.7087 13.9423 31.515 13.9993C31.3416 14.0427 31.1632 14.0627 30.9845 14.0588C24.7645 14.0588 18.5444 14.0588 12.3244 14.0588C12.1309 14.063 11.9378 14.0373 11.7521 13.9826C11.5684 13.9165 11.4115 13.7917 11.3059 13.6275C11.2003 13.4632 11.1517 13.2688 11.1678 13.0742C11.1839 12.8796 11.2636 12.6957 11.3947 12.5511C11.5259 12.4064 11.701 12.3089 11.8931 12.2739C12.0856 12.249 12.2798 12.2392 12.4738 12.2446H21.714Z" fill="#8CA4D3"/>
<path d="M17.5644 9.5241C15.7722 9.5241 13.9789 9.5241 12.1855 9.5241C11.5881 9.5241 11.2299 9.22853 11.1735 8.72824C11.1444 8.49532 11.2086 8.26034 11.352 8.0745C11.4954 7.88866 11.7064 7.767 11.939 7.73602C12.0873 7.71719 12.2368 7.7109 12.3861 7.71722H22.7856C22.8901 7.71722 22.9945 7.71722 23.099 7.71722C23.6588 7.75482 24.0557 8.15589 24.039 8.65722C24.0222 9.15855 23.6421 9.5147 23.0822 9.51784C21.2398 9.52933 19.4027 9.52306 17.5644 9.5241Z" fill="#8CA4D3"/>
<path d="M17.6271 30.3207C19.4204 30.3207 21.2147 30.3155 23.008 30.3207C23.758 30.3207 24.2175 30.9473 23.9407 31.574C23.7632 31.974 23.4321 32.1276 23.0007 32.1255C21.5803 32.1192 20.1609 32.1255 18.7404 32.1255C16.5576 32.1255 14.375 32.1255 12.1928 32.1255C11.5578 32.1255 11.1484 31.7474 11.1661 31.1991C11.1808 30.6716 11.5839 30.3249 12.2001 30.3238C14.0091 30.3189 15.8181 30.3179 17.6271 30.3207Z" fill="#8CA4D3"/>
<path d="M22.1548 25.8124C23.3809 25.8124 24.6061 25.8009 25.8322 25.8187C26.0598 25.8169 26.2791 25.9042 26.4432 26.0619C26.6073 26.2195 26.7033 26.4351 26.7106 26.6626C26.7194 26.8897 26.6431 27.1119 26.4967 27.2858C26.3502 27.4596 26.1442 27.5726 25.9189 27.6026C25.7708 27.6217 25.6212 27.6284 25.4719 27.6224H18.7457C18.6559 27.6224 18.5661 27.6224 18.4762 27.6224C17.8757 27.5942 17.4777 27.2161 17.4903 26.6824C17.5028 26.1487 17.8778 25.8155 18.4783 25.8103C19.7035 25.7999 20.9296 25.8103 22.1548 25.8103V25.8124Z" fill="#8CA4D3"/>
<path d="M15.3878 16.7653C16.4322 16.7653 17.4767 16.7653 18.5295 16.7653C19.1917 16.7653 19.5739 17.1078 19.5739 17.6697C19.5739 18.2317 19.1875 18.5669 18.5222 18.568C16.4131 18.568 14.304 18.568 12.1949 18.568C11.5766 18.568 11.1776 18.216 11.1672 17.6854C11.1557 17.1381 11.562 16.7694 12.2033 16.7663C13.2644 16.7611 14.3256 16.7653 15.3878 16.7653Z" fill="#8CA4D3"/>
<path d="M28.082 18.5705C27.1106 18.5705 26.1393 18.5705 25.1669 18.5705C24.5027 18.5705 24.1173 18.2352 24.1152 17.6733C24.1131 17.1114 24.4964 16.7688 25.1596 16.7678C27.1468 16.7636 29.1351 16.7636 31.1244 16.7678C31.772 16.7678 32.1689 17.1292 32.1563 17.6859C32.1469 18.2258 31.7595 18.5663 31.1338 18.5695C30.1155 18.5736 29.0993 18.5705 28.082 18.5705Z" fill="#8CA4D3"/>
<path d="M12.9741 25.819C13.3031 25.819 13.6321 25.7991 13.959 25.8242C14.1698 25.8383 14.3683 25.9283 14.5179 26.0775C14.6674 26.2267 14.7579 26.425 14.7726 26.6357C14.8113 27.0535 14.5324 27.5214 14.0958 27.5559C13.3405 27.617 12.5815 27.617 11.8262 27.5559C11.3782 27.5172 11.1306 27.0713 11.1714 26.6263C11.1855 26.4155 11.2769 26.2173 11.4279 26.0695C11.5789 25.9217 11.7791 25.8348 11.9902 25.8252C12.3161 25.8023 12.6461 25.8252 12.9741 25.8252V25.819Z" fill="#8CA4D3"/>
<path d="M35.625 35.8304L38.6841 32.9843C38.7975 32.8655 38.9174 32.7532 39.0434 32.648C39.212 32.521 39.4203 32.4584 39.631 32.4714C39.8416 32.4844 40.0407 32.5722 40.1923 32.719C40.5056 33.0209 40.6101 33.5347 40.3103 33.8575C38.9971 35.25 37.6634 36.6207 36.3091 37.9694C36.0104 38.2671 35.533 38.2128 35.1999 37.912C34.5669 37.3417 33.9465 36.7631 33.3387 36.1594C33.1777 35.9993 33.0846 35.7834 33.0786 35.5565C33.0725 35.3295 33.1541 35.109 33.3063 34.9405C33.3812 34.8511 33.4733 34.7776 33.5772 34.7245C33.6811 34.6714 33.7946 34.6398 33.911 34.6315C34.0274 34.6232 34.1442 34.6384 34.2546 34.6763C34.3649 34.7141 34.4666 34.7738 34.5534 34.8518C34.967 35.1975 35.3503 35.5766 35.625 35.8304Z" fill="#8CA4D3"/>
</svg>
