<svg width="45" height="45" viewBox="0 0 45 45" fill="none" xmlns="http://www.w3.org/2000/svg">
<path d="M0.505005 18.0346C0.533005 17.9546 0.568005 17.8756 0.588005 17.7936C1.03601 15.9466 2.69801 14.8416 4.56201 15.1316C4.64658 15.1411 4.73221 15.1334 4.81369 15.1088C4.89518 15.0842 4.97081 15.0433 5.03601 14.9886C8.36534 11.6766 11.6867 8.35595 15 5.02661C15.0518 4.96729 15.0911 4.89805 15.1153 4.8231C15.1395 4.74815 15.1483 4.66905 15.141 4.59061C14.9 3.03461 15.582 1.61461 16.922 0.904613C18.262 0.194613 19.857 0.427613 20.991 1.55361C23.409 3.95361 25.8183 6.36328 28.219 8.78261C29.312 9.88261 29.552 11.4456 28.879 12.7826C28.2 14.1316 26.8 14.8266 25.23 14.6216C25.0423 14.6109 24.8571 14.6688 24.709 14.7846C24.421 15.0146 24.173 15.2936 23.899 15.5596C25.406 16.4446 25.864 18.2046 24.671 19.7186C26.5457 21.3559 28.4213 22.9933 30.298 24.6306C32.8647 26.8706 35.4314 29.1099 37.998 31.3486C39.583 32.7316 41.177 34.1046 42.748 35.5026C43.9 36.5266 44.5 37.8236 44.5 39.3716C44.5 41.8116 42.682 43.9716 40.276 44.4116C40.166 44.4316 40.058 44.4696 39.95 44.4996H38.656C38.634 44.4816 38.615 44.4516 38.591 44.4476C37.175 44.2376 36.091 43.4946 35.163 42.4266C31.595 38.3026 28.017 34.1873 24.429 30.0806C22.8603 28.2806 21.291 26.4786 19.721 24.6746C18.097 25.9146 16.399 25.3266 15.521 23.8386C15.309 24.0916 15.142 24.3486 14.921 24.5446C14.646 24.7876 14.577 25.0316 14.629 25.4036C14.785 26.5036 14.435 27.4706 13.646 28.2546C12.272 29.6166 10.146 29.5776 8.72101 28.1546C6.54601 25.9996 4.40001 23.8176 2.21401 21.6676C1.45101 20.9156 0.745005 20.1506 0.505005 19.0676V18.0346ZM13.634 23.2846C16.854 20.0646 20.078 16.8426 23.256 13.6656L16.09 6.50861L6.47501 16.1246L13.634 23.2846ZM30.1 33.9786L33.97 30.1116L23.507 20.9866L20.985 23.5076L30.1 33.9786ZM33.6 38.0076C34.667 39.2306 35.706 40.4686 36.8 41.6596C37.1118 42.0065 37.4917 42.2855 37.9161 42.4791C38.3404 42.6726 38.8001 42.7767 39.2665 42.7846C39.7329 42.7926 40.1959 42.7044 40.6266 42.5254C41.0573 42.3465 41.4466 42.0807 41.77 41.7446C43.186 40.3096 43.107 38.1166 41.578 36.7536C40.629 35.9076 39.662 35.0796 38.703 34.2426L38 33.6246L33.6 38.0076ZM16.814 3.95361C16.807 4.49361 17.055 4.90661 17.425 5.27561C19.625 7.46695 21.8203 9.66128 24.011 11.8586C24.234 12.0816 24.448 12.3136 24.685 12.5206C25.614 13.3316 27.073 12.9386 27.441 11.7686C27.669 11.0436 27.449 10.4316 26.914 9.89861C24.652 7.64861 22.3953 5.39395 20.144 3.13461C19.978 2.95688 19.8027 2.78798 19.619 2.62861C19.054 2.17361 18.425 2.08561 17.774 2.40461C17.141 2.71361 16.824 3.24561 16.814 3.95361ZM3.93701 16.8136C3.21401 16.8366 2.67801 17.1636 2.38201 17.8286C2.07001 18.5286 2.19101 19.1886 2.72501 19.7286C5.14301 22.1646 7.56967 24.5923 10.005 27.0116C10.1638 27.178 10.3546 27.3105 10.566 27.401C10.7775 27.4915 11.005 27.5381 11.235 27.5381C11.465 27.5381 11.6926 27.4915 11.904 27.401C12.1154 27.3105 12.3063 27.178 12.465 27.0116C13.13 26.3286 13.126 25.2926 12.421 24.5836C10.007 22.1569 7.59034 19.7376 5.17101 17.3256C5.01231 17.159 4.82057 17.0275 4.60807 16.9393C4.39558 16.8511 4.16701 16.8083 3.93701 16.8136ZM17.063 22.6476C17.079 23.1556 17.25 23.4196 17.586 23.5596C17.977 23.7226 18.309 23.6016 18.598 23.3116C20.166 21.7416 21.7333 20.1709 23.3 18.5996C23.714 18.1836 23.732 17.6606 23.372 17.3076C23.012 16.9546 22.492 16.9836 22.077 17.3966C20.505 18.9633 18.9383 20.5346 17.377 22.1106C17.21 22.2826 17.126 22.5366 17.063 22.6476ZM35.434 31.3896L31.372 35.4406L32.392 36.6056L36.606 32.4146L35.434 31.3896Z" fill="#8CA4D3"/>
<path d="M23.029 39.5C22.801 39.308 22.548 39.146 22.297 38.963C22.347 38.868 22.392 38.781 22.44 38.695C23.575 36.645 22.164 34.201 19.819 34.195C14.9523 34.1824 10.0857 34.1824 5.219 34.195C4.76257 34.1935 4.31189 34.2969 3.90173 34.4971C3.49156 34.6973 3.13287 34.9891 2.85333 35.3499C2.57378 35.7107 2.38086 36.1309 2.28943 36.5781C2.198 37.0253 2.21051 37.4875 2.326 37.929C2.418 38.294 2.606 38.629 2.749 38.984C1.725 39.713 1.315 40.113 0.973996 40.857C0.773996 41.28 0.660996 41.738 0.507996 42.181V44.5H23.963C24.163 44.253 24.501 44.022 24.529 43.758C24.706 42.114 24.361 40.622 23.029 39.5ZM4.036 36.724C4.24199 36.2 4.70899 35.909 5.36799 35.908C7.76799 35.908 10.1713 35.908 12.578 35.908H19.744C20.766 35.908 21.415 36.846 21.004 37.723C20.753 38.258 20.304 38.486 19.721 38.485C18.219 38.485 16.717 38.485 15.215 38.485C11.925 38.485 8.63499 38.485 5.345 38.485C4.333 38.482 3.68799 37.605 4.036 36.724ZM2.241 42.753C2.24059 42.4175 2.3066 42.0852 2.43522 41.7753C2.56384 41.4653 2.75253 41.1839 2.99041 40.9473C3.22828 40.7106 3.51065 40.5233 3.82122 40.3963C4.1318 40.2693 4.46445 40.2049 4.79999 40.207C7.26299 40.196 9.72599 40.207 12.19 40.207C14.882 40.207 17.574 40.199 20.266 40.207C20.6017 40.2045 20.9347 40.2686 21.2455 40.3954C21.5564 40.5223 21.8391 40.7095 22.0772 40.9462C22.3153 41.183 22.5042 41.4645 22.6328 41.7746C22.7615 42.0847 22.8275 42.4173 22.827 42.753H2.241Z" fill="#8CA4D3"/>
<path d="M16.943 10.1518C16.881 10.2618 16.797 10.5158 16.629 10.6878C15.4663 11.8738 14.293 13.0495 13.109 14.2148C12.709 14.6088 12.196 14.6148 11.846 14.2708C11.496 13.9268 11.496 13.4118 11.892 13.0108C13.07 11.8198 14.259 10.6388 15.444 9.45483C15.724 9.17383 16.056 9.08583 16.425 9.23783C16.76 9.37583 16.932 9.64283 16.943 10.1518Z" fill="#8CA4D3"/>
<path d="M10.038 16.9402C9.92707 16.9452 9.81625 16.9279 9.71211 16.8893C9.60797 16.8507 9.51262 16.7916 9.43171 16.7155C9.35079 16.6395 9.28594 16.5479 9.24099 16.4464C9.19604 16.3448 9.17191 16.2353 9.17002 16.1242C9.16515 16.0097 9.18355 15.8954 9.22411 15.7882C9.26467 15.681 9.32654 15.5831 9.40599 15.5005C9.48543 15.4179 9.58081 15.3522 9.68634 15.3075C9.79188 15.2627 9.90539 15.2399 10.02 15.2402C10.2444 15.243 10.459 15.3325 10.6187 15.4901C10.7785 15.6476 10.8711 15.8609 10.877 16.0852C10.8771 16.3093 10.7892 16.5243 10.6323 16.6842C10.4754 16.8441 10.262 16.936 10.038 16.9402Z" fill="#8CA4D3"/>
</svg>
