<svg width="51" height="51" viewBox="0 0 51 51" fill="none" xmlns="http://www.w3.org/2000/svg">
<path d="M19.1873 43.2933C19.0468 43.2756 18.9051 43.2691 18.7635 43.274H16.8515L16.8243 43.2128C16.81 43.1864 16.7994 43.1582 16.7926 43.129C16.7223 42.5615 16.6506 41.9949 16.5773 41.429C16.3801 39.8684 16.1749 38.2556 15.9993 36.669C15.9188 35.9459 16.252 35.1956 16.8901 34.655C18.8417 33.0094 19.3381 32.912 21.896 32.989C24.0494 33.0525 25.5578 34.2198 26.0531 36.1907C26.14 36.6089 26.1826 37.0351 26.18 37.4623C26.18 37.6561 26.1902 37.8556 26.2038 38.0505C26.2412 38.5764 26.5302 38.8892 26.9779 38.8892C27.0808 38.8912 27.1832 38.8726 27.2789 38.8347C27.3746 38.7967 27.4618 38.7401 27.5355 38.6682C27.6079 38.5919 27.6644 38.5021 27.7017 38.4038C27.7391 38.3056 27.7565 38.2009 27.7531 38.0958V37.8794C27.7531 37.2254 27.7531 36.5488 27.608 35.9108C27.0334 33.2712 24.7974 31.4624 22.0445 31.4103C21.5503 31.4001 21.0641 31.4035 20.5485 31.4103H19.8685C19.8685 31.2369 19.8685 31.0703 19.8685 30.9048C19.8753 30.5025 19.8809 30.124 19.8537 29.7443C19.8254 29.3306 19.9523 29.053 20.3071 28.7549C22.5284 26.886 23.6969 24.497 23.7796 21.6546C23.8159 20.3909 23.8091 19.1046 23.8023 17.8613C23.8023 17.34 23.7955 16.8198 23.7966 16.2984C23.7872 14.6971 23.4046 13.1201 22.6791 11.6926C21.5515 9.40663 19.4593 7.59329 16.9467 6.73196C14.3922 5.85249 11.7096 5.99303 9.39194 7.12749C5.6984 8.94083 3.71394 11.9748 3.4986 16.1602C3.4714 16.6622 3.6754 16.9784 4.1038 17.0986C4.4336 17.1915 4.49254 17.383 4.48687 17.7038C4.47667 18.25 4.47894 18.8054 4.48687 19.3426C4.48687 19.8435 4.48687 20.3626 4.48687 20.868C4.42 24.1898 5.66667 26.9087 8.18494 28.9498C8.28921 29.0348 8.40254 29.1595 8.40481 29.2536C8.42067 29.7942 8.41954 30.3268 8.41727 30.8912C8.41727 31.0624 8.41727 31.2312 8.41727 31.408C8.18267 31.408 7.95487 31.408 7.73047 31.408C7.2216 31.408 6.73994 31.4001 6.25714 31.416C4.01087 31.4862 2.33353 32.4756 1.27047 34.3558C1.0424 34.7989 0.863401 35.2656 0.736667 35.7476C0.670933 35.9629 0.604066 36.185 0.529266 36.3981V44.3133L0.536066 44.3235C0.810333 44.7768 1.2308 44.838 1.64447 44.838H1.65127C5.87747 44.8312 10.1751 44.8312 14.331 44.8312H18.8269C18.9631 44.8385 19.0997 44.8297 19.2338 44.8052C19.4113 44.7692 19.5703 44.6716 19.6827 44.5297C19.7952 44.3877 19.8538 44.2106 19.8482 44.0296C19.8427 43.8487 19.7733 43.6755 19.6523 43.5407C19.5314 43.406 19.3667 43.3183 19.1873 43.2933ZM21.8858 14.7061C21.6912 14.5742 21.4879 14.4557 21.2772 14.3514C20.4011 13.9422 19.4265 13.9388 18.2081 14.3412C17.4533 14.5894 16.694 14.867 15.9607 15.1345C15.3623 15.3532 14.7447 15.5788 14.1327 15.7884C10.965 16.8708 8.10561 16.9218 5.3924 15.9244C5.31647 15.8972 5.24167 15.87 5.16574 15.8383C5.14983 15.8304 5.13498 15.8205 5.12154 15.8088H5.11474C5.16234 12.3692 8.02174 8.35036 12.58 7.81996C17.2165 7.27936 21.2919 10.2895 22.1 14.8342L21.8858 14.7061ZM6.04407 18.9198C6.04407 18.5719 6.04974 18.2296 6.05087 17.8998C6.4396 17.9316 6.82947 17.969 7.208 18.0064C8.10447 18.0925 8.95107 18.1752 9.81467 18.182C11.883 18.1956 13.8063 17.5746 15.5947 16.9354L16.2259 16.7087C17.2176 16.3506 18.2421 15.9811 19.2723 15.7057C20.3445 15.4178 21.0063 15.7216 21.5571 16.754C22.0751 17.7242 22.2881 18.5311 22.2485 19.372C22.2292 19.7664 22.2281 20.1654 22.2258 20.5552C22.2258 21.5174 22.2167 22.5114 21.955 23.4736C21.6462 24.6065 21.0942 25.6586 20.3376 26.5566C19.5809 27.4545 18.6377 28.1769 17.5735 28.6733C16.5366 29.1675 15.4045 29.4297 14.2559 29.4416C13.1073 29.4536 11.97 29.215 10.9231 28.7424C7.82001 27.319 6.17667 24.863 6.05767 21.4381C6.0282 20.5892 6.03614 19.7404 6.04407 18.9198ZM14.9181 31.7582C14.9441 31.5827 14.9494 31.4046 14.9339 31.2278C14.9339 31.17 14.9271 31.1145 14.926 31.0635L18.2909 30.175C18.2909 30.2883 18.2909 30.3926 18.2909 30.5036C18.2909 30.881 18.2909 31.2709 18.2784 31.6596C18.2784 31.7367 18.173 31.8489 18.0789 31.9135C17.4726 32.3317 16.8787 32.7386 16.2656 33.1194C16.1267 33.1795 15.971 33.1887 15.8259 33.1454C15.0733 32.9505 14.7753 32.4972 14.9181 31.7582ZM9.99487 31.4352C9.97007 31.1197 9.96288 30.803 9.97334 30.4866C9.97334 30.379 9.97334 30.2736 9.97334 30.1693L13.3586 31.0635C13.3586 31.1678 13.3586 31.2754 13.3586 31.3854C13.3586 31.7616 13.3586 32.1504 13.3473 32.547C13.3473 32.623 13.2441 32.7318 13.1455 32.793C12.9531 32.9294 12.7405 33.0349 12.5154 33.1058C12.328 33.1602 12.1274 33.1469 11.9487 33.0684C11.3632 32.7217 10.7958 32.3453 10.2487 31.9407C10.1049 31.8091 10.0145 31.6292 9.99487 31.4352ZM7.03234 40.5359V40.4226C7.03761 40.2954 7.03269 40.1681 7.0176 40.0418C6.95527 39.6088 6.62094 39.3051 6.2186 39.321C6.11901 39.322 6.02063 39.3429 5.92925 39.3825C5.83788 39.4222 5.75538 39.4797 5.68661 39.5518C5.61784 39.6238 5.5642 39.7089 5.52885 39.802C5.4935 39.8951 5.47717 39.9944 5.4808 40.0939C5.46607 40.7172 5.4672 41.3496 5.46834 41.9628C5.46834 42.2166 5.46834 42.4705 5.46834 42.7244C5.46834 42.8456 5.46834 42.9658 5.46834 43.0972V43.2366H2.11367C2.11367 43.2094 2.11367 43.18 2.1046 43.1516C2.09553 43.0598 2.08533 42.9658 2.08533 42.8728C2.08533 42.4127 2.08533 41.9533 2.08533 41.4947C2.08533 40.1268 2.07853 38.7124 2.08533 37.3218C2.10233 35.1458 3.34674 33.533 5.3346 33.1126C5.91714 32.9902 6.53707 32.989 7.13661 32.9879C7.48227 32.9879 7.83814 32.9879 8.18607 32.9641C8.43756 32.9388 8.69157 32.9634 8.93352 33.0365C9.17547 33.1096 9.40059 33.2298 9.59594 33.3902C9.87292 33.6216 10.1747 33.8215 10.4958 33.9864C11.3005 34.3728 11.8501 35.0324 12.2253 36.0604C12.3003 36.2975 12.3209 36.5486 12.2853 36.7948C12.138 38.0222 11.9816 39.2677 11.832 40.4736C11.7262 41.2956 11.6242 42.1143 11.526 42.9295C11.4965 43.1698 11.458 43.2763 11.2098 43.2763H11.2007C10.5491 43.2706 9.90307 43.2684 9.24234 43.2684H7.03234V40.5359ZM13.8425 36.9682H14.4432L15.2286 43.2446H13.0617L13.8425 36.9682ZM14.8716 34.9066C14.7764 35.1684 14.6948 35.3928 14.2811 35.3758H14.2086C13.5751 35.3498 13.5683 35.3498 13.2725 34.5553C13.9808 33.9886 14.1984 33.9886 15.0518 34.5553C14.9704 34.6602 14.9093 34.7793 14.8716 34.9066Z" fill="#8CA4D3"/>
<path d="M47.413 27.4697C42.4841 27.4697 37.3739 27.4697 32.2263 27.4697C30.2815 27.4697 29.1663 28.5872 29.1663 30.5297C29.1663 32.6831 29.1663 34.8364 29.1663 36.9897V40.2923H21.7464C21.1129 40.2923 20.7139 40.3081 20.4997 40.5189C20.2855 40.7297 20.2731 41.1366 20.2731 41.7803C20.2799 43.7161 21.3985 44.8267 23.3433 44.8267H47.4028C49.3544 44.8267 50.473 43.7138 50.4741 41.7747C50.4741 38.0256 50.4741 34.2769 50.4741 30.5286C50.4741 28.5861 49.3578 27.472 47.413 27.4697ZM29.1165 43.2344C29.1083 43.2422 29.0996 43.2494 29.0904 43.2559L27.5502 43.2627C26.0984 43.2695 24.5956 43.2775 23.1189 43.2627C22.7279 43.2627 22.4207 43.1437 22.2065 42.9227C21.9923 42.7017 21.8665 42.3402 21.8665 41.8948H29.1267V43.2287L29.1165 43.2344ZM31.2041 43.2695C31.0998 43.2695 30.9955 43.2639 30.8754 43.2571L30.7133 43.248V30.6215C30.7133 29.4667 31.1361 29.0349 32.2728 29.0349H47.4141C48.4659 29.0349 48.9147 29.4803 48.9147 30.5218C48.9147 34.2542 48.9147 37.9856 48.9147 41.7157C48.9147 42.8185 48.4613 43.2684 47.362 43.2684C41.9756 43.2714 36.5897 43.2718 31.2041 43.2695Z" fill="#8CA4D3"/>
<path d="M39.8174 33.3955C39.0928 33.3995 38.3986 33.687 37.8832 34.1964C37.3679 34.7058 37.0724 35.3967 37.06 36.1212C37.0559 36.4813 37.124 36.8387 37.2603 37.1721C37.3965 37.5056 37.5982 37.8083 37.8533 38.0626C38.1095 38.3249 38.4155 38.5333 38.7534 38.6755C39.0913 38.8178 39.4542 38.8911 39.8208 38.891C40.545 38.8882 41.2393 38.602 41.7551 38.0936C42.2709 37.5852 42.5671 36.8951 42.5805 36.171C42.5841 35.8108 42.5158 35.4534 42.3796 35.1198C42.2434 34.7862 42.042 34.4832 41.7871 34.2285C41.5299 33.9667 41.2235 33.7583 40.8854 33.6154C40.5474 33.4724 40.1844 33.3977 39.8174 33.3955ZM39.8355 37.335H39.8197C39.5081 37.3279 39.2116 37.1994 38.9935 36.9768C38.8802 36.8688 38.7895 36.7393 38.7266 36.5959C38.6638 36.4525 38.6301 36.2981 38.6274 36.1416C38.6389 35.8343 38.7662 35.5427 38.9838 35.3253C39.2014 35.108 39.4931 34.9809 39.8004 34.9697H39.8129C40.1306 34.974 40.4338 35.103 40.6572 35.329C40.7676 35.4362 40.8557 35.5642 40.9163 35.7056C40.977 35.847 41.0091 35.999 41.0108 36.1529C40.9953 36.4602 40.8667 36.751 40.6498 36.9692C40.4328 37.1875 40.1428 37.3177 39.8355 37.335Z" fill="#8CA4D3"/>
</svg>
