<svg width="47" height="47" viewBox="0 0 47 47" fill="none" xmlns="http://www.w3.org/2000/svg">
<path d="M44.2761 19.4162C42.8912 18.8522 41.314 19.2501 40.2853 20.3134C39.8675 20.7423 39.4497 21.1705 39.0319 21.598C37.741 22.9259 36.4487 24.2523 35.155 25.5774C35.0589 25.6756 34.9826 25.9482 34.7518 25.6923C33.9068 24.7523 32.8185 24.4912 31.5986 24.5006C28.5697 24.5246 25.5335 24.5089 22.5015 24.5089C22.2783 24.5215 22.0547 24.4903 21.8435 24.417C20.5686 23.8983 19.2061 23.6289 17.8297 23.6232C13.4556 23.6232 9.94207 25.2421 7.62131 29.0825C7.58652 29.1622 7.52729 29.2287 7.45218 29.2725C7.37707 29.3162 7.28999 29.3349 7.20353 29.3259C5.66402 29.3259 4.935 30.3933 3.96889 31.3594C3.20122 32.1261 2.44818 32.9439 1.60949 33.6342C0.4042 34.6265 0.203666 35.062 1.00893 35.8735C4.15271 39.0438 7.29788 42.214 10.4444 45.3842C10.6868 45.6491 10.9587 45.8853 11.2549 46.0882L11.82 46.0506C11.9864 45.9334 12.1454 45.8061 12.2962 45.6694C13.6728 44.32 15.041 42.9643 16.4155 41.6128C17.1581 40.8816 17.4025 40.0043 17.203 38.9933C17.1759 38.8596 17.1393 38.751 17.2553 38.6256C18.1222 37.6856 19.0559 37.0381 20.4617 37.0652C24.2395 37.1404 28.0204 37.1081 31.8002 37.0851C34.3413 37.0694 36.4595 36.12 38.0951 34.1272C39.8382 32.0039 41.6368 29.9254 43.3726 27.7958C44.3576 26.5863 45.5346 25.4332 46.1812 23.9898C46.1968 23.9554 46.2125 23.9198 46.2271 23.8854C46.9718 22.1359 45.9848 20.1128 44.2761 19.4162ZM15.1612 40.327C14.0217 41.4477 12.8801 42.5663 11.749 43.6964C11.5683 43.8771 11.468 43.8677 11.2915 43.6891C8.49656 40.8642 5.6964 38.0442 2.89102 35.2291C2.726 35.0641 2.72809 34.9763 2.89102 34.8113C4.02738 33.6875 5.14807 32.548 6.28338 31.4231C6.7304 30.9803 7.21084 30.9845 7.65996 31.4315C10.1569 33.9201 12.651 36.4118 15.1424 38.9066C15.3387 39.1029 15.487 39.3244 15.4693 39.5917C15.4773 39.7297 15.4538 39.8676 15.4004 39.9951C15.347 40.1225 15.2652 40.2361 15.1612 40.327ZM44.2615 23.9439C42.7254 25.7946 41.1828 27.6398 39.6335 29.4794C38.6653 30.6367 37.6762 31.7772 36.7331 32.9543C35.4422 34.5638 33.7491 35.2803 31.7281 35.2949C29.7552 35.3085 27.7822 35.2949 25.8093 35.2949C24.0337 35.2949 22.2508 35.3388 20.4742 35.2813C18.8595 35.2291 17.5112 35.7315 16.4364 36.9295C16.1544 37.2428 15.9978 37.2428 15.6907 36.9295C13.5844 34.7883 11.4607 32.6646 9.31958 30.5583C9.06473 30.3066 9.06473 30.1406 9.24229 29.8533C10.7379 27.3989 12.9428 26.016 15.7419 25.5565C17.696 25.2348 19.6126 25.403 21.4498 26.1894C21.7077 26.3001 21.972 26.3001 22.2404 26.3001C25.4545 26.3001 28.6679 26.3001 31.8806 26.3001C32.995 26.3001 33.7074 26.8579 33.8786 27.8344C33.9471 28.2814 33.8432 28.7377 33.5877 29.1108C33.3323 29.484 32.9446 29.7461 32.5031 29.8439C32.2825 29.883 32.0586 29.9001 31.8347 29.8951C29.6065 29.8993 27.3784 29.8993 25.1502 29.8951C24.9712 29.8904 24.792 29.8998 24.6144 29.9233C24.4146 29.9567 24.2323 30.0579 24.0985 30.21C23.9646 30.3621 23.8873 30.5557 23.8795 30.7582C23.8718 30.9607 23.9341 31.1596 24.056 31.3214C24.1779 31.4833 24.3519 31.5982 24.5486 31.6467C24.7242 31.6826 24.9032 31.6987 25.0823 31.6947C27.3237 31.6947 29.5661 31.6655 31.8075 31.7051C34.3664 31.7511 35.8589 29.7322 35.6814 27.8104C35.6626 27.6015 35.7774 27.5096 35.8902 27.3926C37.7856 25.443 39.6816 23.4934 41.5783 21.5437C42.3042 20.799 43.382 20.7426 44.1132 21.4017C44.8443 22.0607 44.9268 23.1407 44.2615 23.9439Z" fill="#8CA4D3"/>
<path d="M27.0908 19.7233C25.158 19.7235 23.2686 19.1506 21.6615 18.0769C20.0543 17.0033 18.8017 15.4771 18.062 13.6915C17.3222 11.9059 17.1286 9.94103 17.5056 8.04539C17.8827 6.14974 18.8134 4.40847 20.18 3.04179C21.5467 1.67512 23.288 0.744419 25.1836 0.367404C27.0793 -0.00961091 29.0441 0.183992 30.8298 0.923728C32.6154 1.66346 34.1415 2.91611 35.2152 4.52323C36.2888 6.13036 36.8618 8.01979 36.8616 9.95256C36.8585 12.543 35.8281 15.0265 33.9964 16.8582C32.1647 18.6899 29.6812 19.7203 27.0908 19.7233ZM27.0908 1.64296C25.4473 1.64275 23.8406 2.12993 22.474 3.04287C21.1073 3.95582 20.0421 5.25353 19.413 6.77189C18.7839 8.29025 18.6192 9.96107 18.9397 11.573C19.2602 13.185 20.0515 14.6657 21.2136 15.828C22.3757 16.9902 23.8563 17.7817 25.4683 18.1024C27.0802 18.4231 28.751 18.2586 30.2695 17.6297C31.7879 17.0008 33.0857 15.9358 33.9989 14.5692C34.912 13.2027 35.3994 11.5961 35.3994 9.95256C35.3969 7.74966 34.5207 5.63769 32.9632 4.0799C31.4056 2.52212 29.2937 1.64572 27.0908 1.64296Z" fill="#8CA4D3"/>
<path d="M29.5933 13.2452C29.1421 13.6734 28.4879 13.9331 27.6308 14.0243V15.2986H26.6981V14.0358C26.1563 14.0014 25.6211 13.8982 25.1053 13.7288C24.6694 13.5968 24.2638 13.3803 23.9115 13.0917L24.4233 11.9428C24.7325 12.1863 25.0779 12.3801 25.4468 12.5172C25.8487 12.6727 26.2708 12.7701 26.7002 12.8065V10.5317C26.2398 10.4282 25.789 10.2857 25.3528 10.1056C24.9998 9.95562 24.6892 9.72102 24.4483 9.42252C24.2046 9.12241 24.0831 8.72622 24.0838 8.23394C24.0801 7.94037 24.1379 7.64926 24.2536 7.37942C24.3692 7.10957 24.5402 6.86697 24.7554 6.66727C25.2024 6.23487 25.8507 5.97689 26.7002 5.89334V4.60449H27.6329V5.86723C28.0553 5.88972 28.4736 5.96229 28.8789 6.08343C29.2542 6.19157 29.6122 6.35264 29.9421 6.56178L29.4763 7.71067C28.9101 7.38174 28.2815 7.17436 27.6308 7.10176V9.39954C28.094 9.50166 28.5481 9.64138 28.9885 9.81732C29.3429 9.96446 29.6555 10.197 29.8983 10.4941C30.1447 10.7942 30.268 11.1904 30.268 11.6827C30.2723 11.976 30.2144 12.2669 30.0981 12.5362C29.9818 12.8056 29.8097 13.0472 29.5933 13.2452ZM25.8448 8.77287C26.103 8.95307 26.3923 9.08408 26.6981 9.15932V7.12996C26.3116 7.19193 26.0234 7.31343 25.8333 7.49447C25.7414 7.58021 25.6687 7.68431 25.6197 7.80002C25.5708 7.91573 25.5468 8.04044 25.5492 8.16605C25.5454 8.28361 25.5703 8.40034 25.6218 8.50608C25.6733 8.61183 25.7498 8.70341 25.8448 8.77287ZM28.5238 12.4284C28.6169 12.3483 28.6911 12.2486 28.7413 12.1365C28.7915 12.0244 28.8164 11.9026 28.8141 11.7798C28.8174 11.6594 28.7912 11.5399 28.7377 11.4319C28.6841 11.324 28.6049 11.2308 28.5071 11.1605C28.2414 10.9771 27.9444 10.844 27.6308 10.7678V12.7815C28.0325 12.723 28.3302 12.6053 28.5238 12.4284Z" fill="#8CA4D3"/>
</svg>
